rosario_italic.sfdir
StartChar: exclam
Encoding: 33 33 246
Width: 246
GlyphClass: 2
Flags: W
LayerCount: 2
Back
Fore
SplineSet
244 667 m 1,0,-1
 153 207 l 1,1,-1
 95 216 l 1,2,-1
 132 683 l 2,3,4
 133 701 133 701 149 713 c 128,-1,5
 165 725 165 725 186 725 c 0,6,7
 209 725 209 725 227 712 c 128,-1,8
 245 699 245 699 245 677 c 2,9,-1
 244 667 l 1,0,-1
101 -14 m 0,10,11
 73 -14 73 -14 54 5.5 c 128,-1,12
 35 25 35 25 35 53 c 0,13,14
 35 80 35 80 54 99.5 c 128,-1,15
 73 119 73 119 100 119 c 0,16,17
 128 119 128 119 147.5 100 c 128,-1,18
 167 81 167 81 167 53 c 128,-1,19
 167 25 167 25 147.5 5.5 c 128,-1,20
 128 -14 128 -14 101 -14 c 0,10,11
EndSplineSet
EndChar
StartChar: numbersign
Encoding: 35 35 245
Width: 640
GlyphClass: 2
Flags: W
LayerCount: 2
Back
Fore
SplineSet
584 426 m 1,0,-1
 453 426 l 1,1,-1
 435 296 l 1,2,-1
 559 296 l 1,3,-1
 559 241 l 1,4,-1
 428 241 l 1,5,-1
 394 0 l 1,6,-1
 333 0 l 1,7,-1
 366 241 l 1,8,-1
 245 241 l 1,9,-1
 211 0 l 1,10,-1
 151 0 l 1,11,-1
 184 241 l 1,12,-1
 57 241 l 1,13,-1
 57 296 l 1,14,-1
 192 296 l 1,15,-1
 209 426 l 1,16,-1
 83 426 l 1,17,-1
 83 483 l 1,18,-1
 217 483 l 1,19,-1
 248 716 l 1,20,-1
 310 716 l 1,21,-1
 278 483 l 1,22,-1
 400 483 l 1,23,-1
 431 716 l 1,24,-1
 491 716 l 1,25,-1
 460 483 l 1,26,-1
 584 483 l 1,27,-1
 584 426 l 1,0,-1
392 426 m 1,28,-1
 270 426 l 1,29,-1
 253 296 l 1,30,-1
 374 296 l 1,31,-1
 392 426 l 1,28,-1
EndSplineSet
EndChar
StartChar: dollar
Encoding: 36 36 4
Width: 399
GlyphClass: 2
Flags: W
LayerCount: 2
Back
Fore
SplineSet
373 466 m 1,0,-1
 337 405 l 1,1,2
 286 440 286 440 240 440 c 0,3,4
 203 440 203 440 175 419.5 c 128,-1,5
 147 399 147 399 147 363 c 0,6,7
 147 341 147 341 166.5 322.5 c 128,-1,8
 186 304 186 304 214 288.5 c 128,-1,9
 242 273 242 273 270 255 c 128,-1,10
 298 237 298 237 317.5 207 c 128,-1,11
 337 177 337 177 337 138 c 0,12,13
 337 73 337 73 293 33 c 128,-1,14
 249 -7 249 -7 183 -14 c 1,15,-1
 163 -124 l 1,16,-1
 85 -124 l 1,17,-1
 119 -13 l 1,18,19
 72 -7 72 -7 12 25 c 1,20,-1
 56 89 l 1,21,22
 108 47 108 47 155 47 c 0,23,24
 193 47 193 47 223.5 69.5 c 128,-1,25
 254 92 254 92 254 129 c 0,26,27
 254 155 254 155 234.5 175.5 c 128,-1,28
 215 196 215 196 187 211.5 c 128,-1,29
 159 227 159 227 131 244 c 128,-1,30
 103 261 103 261 83.5 289 c 128,-1,31
 64 317 64 317 64 353 c 0,32,33
 64 419 64 419 108.5 457.5 c 128,-1,34
 153 496 153 496 220 502 c 1,35,-1
 242 613 l 1,36,-1
 320 613 l 1,37,-1
 285 500 l 1,38,39
 331 494 331 494 373 466 c 1,0,-1
EndSplineSet
EndChar
StartChar: percent
Encoding: 37 37 5
Width: 791
GlyphClass: 2
Flags: W
LayerCount: 2
Back
Fore
SplineSet
746 226 m 0,0,1
 746 176 746 176 725.5 124 c 128,-1,2
 705 72 705 72 662 33.5 c 128,-1,3
 619 -5 619 -5 566 -5 c 0,4,5
 501 -5 501 -5 465 42 c 128,-1,6
 429 89 429 89 429 154 c 0,7,8
 429 242 429 242 479 313 c 128,-1,9
 529 384 529 384 615 384 c 0,10,11
 678 384 678 384 712 337 c 128,-1,12
 746 290 746 290 746 226 c 0,0,1
644 709 m 1,13,-1
 205 -13 l 1,14,-1
 137 -13 l 1,15,-1
 543 653 l 1,16,-1
 334 653 l 1,17,18
 361 610 361 610 361 553 c 0,19,20
 361 503 361 503 340.5 451 c 128,-1,21
 320 399 320 399 277.5 360.5 c 128,-1,22
 235 322 235 322 182 322 c 0,23,24
 117 322 117 322 81 369 c 128,-1,25
 45 416 45 416 45 481 c 0,26,27
 45 568 45 568 94.5 638.5 c 128,-1,28
 144 709 144 709 230 709 c 2,29,-1
 644 709 l 1,13,-1
673 224 m 0,30,31
 673 263 673 263 657.5 294.5 c 128,-1,32
 642 326 642 326 609 326 c 0,33,34
 563 326 563 326 532 269 c 128,-1,35
 501 212 501 212 501 158 c 0,36,37
 501 120 501 120 519 87.5 c 128,-1,38
 537 55 537 55 571 55 c 0,39,40
 618 55 618 55 645.5 112 c 128,-1,41
 673 169 673 169 673 224 c 0,30,31
288 552 m 0,42,43
 288 590 288 590 272.5 621.5 c 128,-1,44
 257 653 257 653 225 653 c 0,45,46
 179 653 179 653 148 597 c 128,-1,47
 117 541 117 541 117 485 c 0,48,49
 117 446 117 446 135 414 c 128,-1,50
 153 382 153 382 187 382 c 0,51,52
 234 382 234 382 261 439.5 c 128,-1,53
 288 497 288 497 288 552 c 0,42,43
EndSplineSet
EndChar
StartChar: ampersand
Encoding: 38 38 6
Width: 659
GlyphClass: 2
Flags: W
LayerCount: 2
Back
Fore
SplineSet
654 303 m 1,0,1
 651 210 651 210 547 210 c 2,2,-1
 532 210 l 1,3,4
 506 110 506 110 425.5 48.5 c 128,-1,5
 345 -13 345 -13 230 -13 c 0,6,7
 151 -13 151 -13 94 39.5 c 128,-1,8
 37 92 37 92 37 171 c 0,9,10
 37 309 37 309 149 397 c 1,11,12
 128 433 128 433 128 476 c 0,13,14
 128 574 128 574 204 631.5 c 128,-1,15
 280 689 280 689 387 689 c 0,16,17
 432 689 432 689 481 673.5 c 128,-1,18
 530 658 530 658 553 631 c 1,19,-1
 511 584 l 1,20,21
 463 630 463 630 397 630 c 0,22,23
 313 630 313 630 262.5 583 c 128,-1,24
 212 536 212 536 212 459 c 0,25,26
 212 449 212 449 216 436 c 1,27,28
 274 462 274 462 334 462 c 0,29,30
 381 462 381 462 407.5 445 c 128,-1,31
 434 428 434 428 434 396 c 0,32,33
 434 362 434 362 399 336.5 c 128,-1,34
 364 311 364 311 310 311 c 0,35,36
 244 311 244 311 193 350 c 1,37,38
 162 315 162 315 145.5 270 c 128,-1,39
 129 225 129 225 129 186 c 0,40,41
 129 128 129 128 163.5 94.5 c 128,-1,42
 198 61 198 61 256 61 c 0,43,44
 334 61 334 61 395.5 105.5 c 128,-1,45
 457 150 457 150 457 187 c 0,46,47
 457 228 457 228 411 228 c 0,48,49
 393 228 393 228 382 216 c 128,-1,50
 371 204 371 204 369 192 c 1,51,-1
 308 192 l 1,52,53
 310 236 310 236 344.5 258.5 c 128,-1,54
 379 281 379 281 421 281 c 2,55,-1
 553 270 l 2,56,57
 569 270 569 270 580.5 278.5 c 128,-1,58
 592 287 592 287 593 303 c 1,59,-1
 654 303 l 1,0,1
364 391 m 0,60,61
 364 410 364 410 326 410 c 0,62,63
 282 410 282 410 243 389 c 1,64,65
 268 364 268 364 305 364 c 0,66,67
 335 364 335 364 349.5 372 c 128,-1,68
 364 380 364 380 364 391 c 0,60,61
EndSplineSet
EndChar
StartChar: parenleft
Encoding: 40 40 8
Width: 323
GlyphClass: 2
Flags: W
LayerCount: 2
Back
Fore
SplineSet
356 727 m 1,0,1
 141 491 141 491 141 189 c 0,2,3
 141 18 141 18 234 -130 c 1,4,-1
 169 -140 l 1,5,6
 59 20 59 20 59 210 c 0,7,8
 59 353 59 353 121.5 489 c 128,-1,9
 184 625 184 625 292 737 c 1,10,-1
 356 727 l 1,0,1
EndSplineSet
EndChar
StartChar: parenright
Encoding: 41 41 9
Width: 328
GlyphClass: 2
Flags: W
LayerCount: 2
Back
Fore
SplineSet
297 386 m 0,0,1
 297 243 297 243 235 107.5 c 128,-1,2
 173 -28 173 -28 65 -140 c 1,3,-1
 0 -130 l 1,4,5
 215 105 215 105 215 407 c 0,6,7
 215 579 215 579 122 727 c 1,8,-1
 187 737 l 1,9,10
 297 577 297 577 297 386 c 0,0,1
EndSplineSet
EndChar
StartChar: asterisk
Encoding: 42 42 10
Width: 405
GlyphClass: 2
Flags: W
LayerCount: 2
Back
Fore
SplineSet
440 565 m 1,0,-1
 299 537 l 1,1,-1
 293 580 l 1,2,-1
 421 642 l 1,3,-1
 440 565 l 1,0,-1
317 724 m 1,4,-1
 280 587 l 1,5,-1
 238 587 l 1,6,-1
 238 724 l 1,7,-1
 317 724 l 1,4,-1
375 425 m 1,8,-1
 306 377 l 1,9,-1
 255 501 l 1,10,-1
 290 523 l 1,11,-1
 375 425 l 1,8,-1
227 578 m 1,12,-1
 208 542 l 1,13,-1
 75 563 l 1,14,-1
 106 638 l 1,15,-1
 227 578 l 1,12,-1
240 500 m 1,16,-1
 155 379 l 1,17,-1
 100 425 l 1,18,-1
 209 526 l 1,19,-1
 240 500 l 1,16,-1
EndSplineSet
EndChar
StartChar: plus
Encoding: 43 43 11
Width: 642
GlyphClass: 2
Flags: W
LayerCount: 2
Back
Fore
SplineSet
567 211 m 1,0,-1
 352 211 l 1,1,-1
 352 0 l 1,2,-1
 282 0 l 1,3,-1
 282 211 l 1,4,-1
 68 211 l 1,5,-1
 68 280 l 1,6,-1
 282 280 l 1,7,-1
 282 490 l 1,8,-1
 352 490 l 1,9,-1
 352 280 l 1,10,-1
 567 280 l 1,11,-1
 567 211 l 1,0,-1
EndSplineSet
EndChar
StartChar: comma
Encoding: 44 44 12
Width: 251
GlyphClass: 2
Flags: W
LayerCount: 2
Back
Fore
SplineSet
171 50 m 0,0,1
 171 0 171 0 135 -45.5 c 128,-1,2
 99 -91 99 -91 48 -125 c 1,3,-1
 18 -92 l 1,4,-1
 24 -87 l 2,5,6
 76 -45 76 -45 76 -18 c 0,7,8
 76 -11 76 -11 56 11 c 128,-1,9
 36 33 36 33 36 54 c 0,10,11
 36 85 36 85 56 102.5 c 128,-1,12
 76 120 76 120 105 120 c 0,13,14
 136 120 136 120 153.5 100 c 128,-1,15
 171 80 171 80 171 50 c 0,0,1
EndSplineSet
EndChar
StartChar: hyphen
Encoding: 45 45 13
Width: 324
GlyphClass: 2
Flags: W
LayerCount: 2
Back
Fore
SplineSet
286 293 m 1,0,-1
 275 222 l 1,1,-1
 34 222 l 1,2,-1
 45 293 l 1,3,-1
 286 293 l 1,0,-1
EndSplineSet
EndChar
StartChar: period
Encoding: 46 46 14
Width: 247
GlyphClass: 2
Flags: W
LayerCount: 2
Back
Fore
SplineSet
101 -13 m 0,0,1
 73 -13 73 -13 54 6.5 c 128,-1,2
 35 26 35 26 35 54 c 0,3,4
 35 81 35 81 54 100.5 c 128,-1,5
 73 120 73 120 100 120 c 0,6,7
 128 120 128 120 147.5 101 c 128,-1,8
 167 82 167 82 167 54 c 128,-1,9
 167 26 167 26 147.5 6.5 c 128,-1,10
 128 -13 128 -13 101 -13 c 0,0,1
EndSplineSet
EndChar
StartChar: slash
Encoding: 47 47 15
Width: 293
GlyphClass: 2
Flags: W
LayerCount: 2
Back
Fore
SplineSet
307 724 m 1,0,-1
 54 -8 l 1,1,-1
 -14 -8 l 1,2,-1
 241 724 l 1,3,-1
 307 724 l 1,0,-1
EndSplineSet
EndChar
StartChar: zero
Encoding: 48 48 16
Width: 513
GlyphClass: 2
Flags: W
LayerCount: 2
Back
Fore
SplineSet
488 284 m 0,0,1
 488 166 488 166 416 76.5 c 128,-1,2
 344 -13 344 -13 227 -13 c 0,3,4
 132 -13 132 -13 78.5 49 c 128,-1,5
 25 111 25 111 25 206 c 0,6,7
 25 325 25 325 97 414 c 128,-1,8
 169 503 169 503 286 503 c 0,9,10
 381 503 381 503 434.5 441 c 128,-1,11
 488 379 488 379 488 284 c 0,0,1
402 297 m 0,12,13
 402 441 402 441 280 441 c 0,14,15
 233 441 233 441 198 418.5 c 128,-1,16
 163 396 163 396 145 358.5 c 128,-1,17
 127 321 127 321 118.5 280 c 128,-1,18
 110 239 110 239 110 194 c 0,19,20
 110 49 110 49 233 49 c 0,21,22
 271 49 271 49 301.5 64 c 128,-1,23
 332 79 332 79 350.5 103.5 c 128,-1,24
 369 128 369 128 381 161 c 128,-1,25
 393 194 393 194 397.5 227.5 c 128,-1,26
 402 261 402 261 402 297 c 0,12,13
EndSplineSet
EndChar
StartChar: one
Encoding: 49 49 17
Width: 376
GlyphClass: 2
Flags: W
LayerCount: 2
Back
Fore
SplineSet
344 67 m 1,0,-1
 335 0 l 1,1,-1
 38 0 l 1,2,-1
 46 67 l 1,3,-1
 157 67 l 1,4,-1
 202 401 l 1,5,-1
 92 370 l 1,6,-1
 86 417 l 1,7,-1
 246 493 l 1,8,-1
 294 493 l 1,9,-1
 237 67 l 1,10,-1
 344 67 l 1,0,-1
EndSplineSet
EndChar
StartChar: two
Encoding: 50 50 18
Width: 450
GlyphClass: 2
Flags: W
LayerCount: 2
Back
Fore
SplineSet
35 0 m 1,0,-1
 35 53 l 1,1,2
 214 228 214 228 249 262 c 0,3,4
 318 329 318 329 318 379 c 0,5,6
 318 403 318 403 303 422 c 128,-1,7
 288 441 288 441 257 441 c 0,8,9
 225 441 225 441 193 422.5 c 128,-1,10
 161 404 161 404 145 385 c 2,11,-1
 129 366 l 1,12,-1
 82 404 l 1,13,14
 162 503 162 503 272 503 c 0,15,16
 330 503 330 503 369.5 471.5 c 128,-1,17
 409 440 409 440 409 383 c 0,18,19
 409 297 409 297 296 201 c 2,20,-1
 140 68 l 1,21,-1
 427 68 l 1,22,-1
 413 0 l 1,23,-1
 35 0 l 1,0,-1
EndSplineSet
EndChar
StartChar: three
Encoding: 51 51 19
Width: 380
GlyphClass: 2
Flags: W
LayerCount: 2
Back
Fore
SplineSet
345 417 m 0,0,1
 345 366 345 366 301.5 312.5 c 128,-1,2
 258 259 258 259 202 221 c 1,3,4
 209 222 209 222 223 222 c 0,5,6
 275 222 275 222 304.5 190 c 128,-1,7
 334 158 334 158 334 105 c 0,8,9
 334 31 334 31 295.5 -30 c 128,-1,10
 257 -91 257 -91 195 -128.5 c 128,-1,11
 133 -166 133 -166 61.5 -187.5 c 128,-1,12
 -10 -209 -10 -209 -81 -212 c 1,13,-1
 -85 -160 l 1,14,15
 -32 -155 -32 -155 24 -136 c 128,-1,16
 80 -117 80 -117 130.5 -86 c 128,-1,17
 181 -55 181 -55 213.5 -8.5 c 128,-1,18
 246 38 246 38 246 91 c 0,19,20
 246 157 246 157 175 157 c 0,21,22
 141 157 141 157 96 142 c 1,23,-1
 76 196 l 1,24,25
 140 230 140 230 198 289 c 128,-1,26
 256 348 256 348 256 401 c 0,27,28
 256 441 256 441 212 441 c 0,29,30
 161 441 161 441 99 385 c 1,31,-1
 57 422 l 1,32,33
 92 459 92 459 142.5 481 c 128,-1,34
 193 503 193 503 241 503 c 0,35,36
 286 503 286 503 315.5 482.5 c 128,-1,37
 345 462 345 462 345 417 c 0,0,1
EndSplineSet
EndChar
StartChar: four
Encoding: 52 52 20
Width: 478
GlyphClass: 2
Flags: W
LayerCount: 2
Back
Fore
SplineSet
453 69 m 1,0,-1
 441 0 l 1,1,-1
 348 0 l 1,2,-1
 323 -183 l 1,3,-1
 244 -183 l 1,4,-1
 269 0 l 1,5,-1
 -3 0 l 1,6,-1
 -3 41 l 1,7,-1
 320 490 l 1,8,-1
 414 490 l 1,9,-1
 358 69 l 1,10,-1
 453 69 l 1,0,-1
322 391 m 1,11,-1
 90 69 l 1,12,-1
 278 69 l 1,13,-1
 322 391 l 1,11,-1
EndSplineSet
EndChar
StartChar: five
Encoding: 53 53 21
Width: 344
GlyphClass: 2
Flags: W
LayerCount: 2
Back
Fore
SplineSet
328 490 m 1,0,-1
 304 406 l 1,1,-1
 136 406 l 1,2,-1
 105 327 l 1,3,4
 131 313 131 313 155.5 293.5 c 128,-1,5
 180 274 180 274 208 243.5 c 128,-1,6
 236 213 236 213 253 170.5 c 128,-1,7
 270 128 270 128 270 80 c 0,8,9
 270 13 270 13 241 -41.5 c 128,-1,10
 212 -96 212 -96 170.5 -125.5 c 128,-1,11
 129 -155 129 -155 87.5 -175 c 128,-1,12
 46 -195 46 -195 17 -201 c 2,13,-1
 -12 -207 l 1,14,-1
 -26 -155 l 1,15,16
 184 -86 184 -86 184 75 c 0,17,18
 184 135 184 135 135.5 192.5 c 128,-1,19
 87 250 87 250 18 283 c 1,20,-1
 103 490 l 1,21,-1
 328 490 l 1,0,-1
EndSplineSet
EndChar
StartChar: six
Encoding: 54 54 22
Width: 497
GlyphClass: 2
Flags: W
LayerCount: 2
Back
Fore
SplineSet
494 677 m 1,0,1
 378 630 378 630 287.5 545.5 c 128,-1,2
 197 461 197 461 153 354 c 1,3,4
 217 403 217 403 292 403 c 0,5,6
 362 403 362 403 405.5 355.5 c 128,-1,7
 449 308 449 308 449 238 c 0,8,9
 449 134 449 134 382 60.5 c 128,-1,10
 315 -13 315 -13 212 -13 c 0,11,12
 129 -13 129 -13 79.5 46 c 128,-1,13
 30 105 30 105 30 189 c 0,14,15
 30 211 30 211 33 235 c 0,16,17
 53 371 53 371 136 479.5 c 128,-1,18
 219 588 219 588 346 665 c 0,19,20
 414 706 414 706 471 726 c 1,21,-1
 494 677 l 1,0,1
361 226 m 0,22,23
 361 273 361 273 335 304 c 128,-1,24
 309 335 309 335 263 335 c 0,25,26
 198 335 198 335 127 268 c 1,27,28
 117 225 117 225 117 187 c 0,29,30
 117 130 117 130 143.5 89.5 c 128,-1,31
 170 49 170 49 221 49 c 0,32,33
 284 49 284 49 322.5 104 c 128,-1,34
 361 159 361 159 361 226 c 0,22,23
EndSplineSet
EndChar
StartChar: seven
Encoding: 55 55 23
Width: 407
GlyphClass: 2
Flags: W
LayerCount: 2
Back
Fore
SplineSet
393 449 m 1,0,-1
 129 -183 l 1,1,-1
 43 -183 l 1,2,-1
 299 415 l 1,3,-1
 22 415 l 1,4,-1
 41 490 l 1,5,-1
 393 490 l 1,6,-1
 393 449 l 1,0,-1
EndSplineSet
EndChar
StartChar: eight
Encoding: 56 56 24
Width: 461
GlyphClass: 2
Flags: W
LayerCount: 2
Back
Fore
SplineSet
436 585 m 0,0,1
 436 524 436 524 400.5 475.5 c 128,-1,2
 365 427 365 427 302 377 c 1,3,4
 335 340 335 340 353 317 c 128,-1,5
 371 294 371 294 388 256 c 128,-1,6
 405 218 405 218 405 180 c 0,7,8
 405 90 405 90 345.5 38.5 c 128,-1,9
 286 -13 286 -13 190 -13 c 0,10,11
 103 -13 103 -13 63.5 31.5 c 128,-1,12
 24 76 24 76 24 140 c 0,13,14
 24 175 24 175 36.5 207 c 128,-1,15
 49 239 49 239 75.5 269 c 128,-1,16
 102 299 102 299 124 319 c 128,-1,17
 146 339 146 339 184 369 c 1,18,19
 100 462 100 462 100 544 c 0,20,21
 100 571 100 571 110.5 600.5 c 128,-1,22
 121 630 121 630 141.5 658 c 128,-1,23
 162 686 162 686 200 704 c 128,-1,24
 238 722 238 722 286 722 c 0,25,26
 333 722 333 722 366 706 c 128,-1,27
 399 690 399 690 412.5 665 c 128,-1,28
 426 640 426 640 431 621.5 c 128,-1,29
 436 603 436 603 436 585 c 0,0,1
358 582 m 0,30,31
 358 611 358 611 341 637 c 128,-1,32
 324 663 324 663 288 663 c 0,33,34
 238 663 238 663 214.5 627.5 c 128,-1,35
 191 592 191 592 191 556 c 0,36,37
 191 524 191 524 207.5 495.5 c 128,-1,38
 224 467 224 467 259 427 c 1,39,40
 358 510 358 510 358 582 c 0,30,31
315 177 m 0,41,42
 315 228 315 228 227 320 c 1,43,44
 167 274 167 274 135.5 233.5 c 128,-1,45
 104 193 104 193 104 145 c 128,-1,46
 104 97 104 97 132 71.5 c 128,-1,47
 160 46 160 46 199 46 c 0,48,49
 245 46 245 46 280 79.5 c 128,-1,50
 315 113 315 113 315 177 c 0,41,42
EndSplineSet
EndChar
StartChar: nine
Encoding: 57 57 25
Width: 486
GlyphClass: 2
Flags: W
LayerCount: 2
Back
Fore
SplineSet
461 305 m 0,0,1
 461 280 461 280 458 256 c 0,2,3
 439 120 439 120 355 14.5 c 128,-1,4
 271 -91 271 -91 142 -162 c 0,5,6
 87 -192 87 -192 16 -215 c 1,7,-1
 -7 -163 l 1,8,9
 258 -55 258 -55 338 136 c 1,10,11
 274 87 274 87 198 87 c 0,12,13
 131 87 131 87 87 138.5 c 128,-1,14
 43 190 43 190 43 256 c 0,15,16
 43 354 43 354 112 428.5 c 128,-1,17
 181 503 181 503 279 503 c 0,18,19
 365 503 365 503 413 447.5 c 128,-1,20
 461 392 461 392 461 305 c 0,0,1
374 307 m 0,21,22
 374 365 374 365 349 403 c 128,-1,23
 324 441 324 441 270 441 c 0,24,25
 209 441 209 441 169.5 385 c 128,-1,26
 130 329 130 329 130 264 c 0,27,28
 130 218 130 218 156.5 186.5 c 128,-1,29
 183 155 183 155 229 155 c 0,30,31
 293 155 293 155 364 222 c 1,32,33
 374 262 374 262 374 307 c 0,21,22
EndSplineSet
EndChar
StartChar: colon
Encoding: 58 58 26
Width: 247
GlyphClass: 2
Flags: W
LayerCount: 2
Back
Fore
SplineSet
101 -13 m 0,0,1
 73 -13 73 -13 54 6.5 c 128,-1,2
 35 26 35 26 35 54 c 0,3,4
 35 81 35 81 54 100.5 c 128,-1,5
 73 120 73 120 100 120 c 0,6,7
 128 120 128 120 147.5 101 c 128,-1,8
 167 82 167 82 167 54 c 128,-1,9
 167 26 167 26 147.5 6.5 c 128,-1,10
 128 -13 128 -13 101 -13 c 0,0,1
146 295 m 0,11,12
 118 295 118 295 99 314.5 c 128,-1,13
 80 334 80 334 80 362 c 0,14,15
 80 389 80 389 99 408.5 c 128,-1,16
 118 428 118 428 145 428 c 0,17,18
 173 428 173 428 192.5 409 c 128,-1,19
 212 390 212 390 212 362 c 128,-1,20
 212 334 212 334 192.5 314.5 c 128,-1,21
 173 295 173 295 146 295 c 0,11,12
EndSplineSet
EndChar
StartChar: semicolon
Encoding: 59 59 27
Width: 251
GlyphClass: 2
Flags: W
LayerCount: 2
Back
Fore
SplineSet
148 295 m 0,0,1
 120 295 120 295 101 314.5 c 128,-1,2
 82 334 82 334 82 362 c 0,3,4
 82 389 82 389 101 408.5 c 128,-1,5
 120 428 120 428 147 428 c 0,6,7
 175 428 175 428 194.5 409 c 128,-1,8
 214 390 214 390 214 362 c 128,-1,9
 214 334 214 334 194.5 314.5 c 128,-1,10
 175 295 175 295 148 295 c 0,0,1
171 50 m 0,11,12
 171 0 171 0 135 -45.5 c 128,-1,13
 99 -91 99 -91 48 -125 c 1,14,-1
 18 -92 l 1,15,-1
 24 -87 l 2,16,17
 76 -45 76 -45 76 -18 c 0,18,19
 76 -11 76 -11 56 11 c 128,-1,20
 36 33 36 33 36 54 c 0,21,22
 36 85 36 85 56 102.5 c 128,-1,23
 76 120 76 120 105 120 c 0,24,25
 136 120 136 120 153.5 100 c 128,-1,26
 171 80 171 80 171 50 c 0,11,12
EndSplineSet
EndChar
StartChar: less
Encoding: 60 60 28
Width: 630
GlyphClass: 2
Flags: W
LayerCount: 2
Back
Fore
SplineSet
566 -7 m 1,0,-1
 68 208 l 1,1,-1
 68 281 l 1,2,-1
 566 494 l 1,3,-1
 566 418 l 1,4,-1
 161 243 l 1,5,-1
 566 68 l 1,6,-1
 566 -7 l 1,0,-1
EndSplineSet
EndChar
StartChar: equal
Encoding: 61 61 29
Width: 630
GlyphClass: 2
Flags: W
LayerCount: 2
Back
Fore
SplineSet
567 305 m 1,0,-1
 68 305 l 1,1,-1
 68 373 l 1,2,-1
 567 373 l 1,3,-1
 567 305 l 1,0,-1
567 115 m 1,4,-1
 68 115 l 1,5,-1
 68 184 l 1,6,-1
 567 184 l 1,7,-1
 567 115 l 1,4,-1
EndSplineSet
EndChar
StartChar: greater
Encoding: 62 62 30
Width: 630
GlyphClass: 2
Flags: W
LayerCount: 2
Back
Fore
SplineSet
566 208 m 1,0,-1
 68 -7 l 1,1,-1
 68 68 l 1,2,-1
 473 243 l 1,3,-1
 68 418 l 1,4,-1
 68 494 l 1,5,-1
 566 281 l 1,6,-1
 566 208 l 1,0,-1
EndSplineSet
EndChar
StartChar: question
Encoding: 63 63 31
Width: 382
GlyphClass: 2
Flags: W
LayerCount: 2
Back
Fore
SplineSet
385 583 m 0,0,1
 385 529 385 529 359.5 493.5 c 128,-1,2
 334 458 334 458 297 442.5 c 128,-1,3
 260 427 260 427 223 415.5 c 128,-1,4
 186 404 186 404 160.5 386.5 c 128,-1,5
 135 369 135 369 135 341 c 0,6,7
 135 315 135 315 157.5 298 c 128,-1,8
 180 281 180 281 204.5 276.5 c 128,-1,9
 229 272 229 272 256 271 c 1,10,-1
 237 203 l 1,11,12
 161 210 161 210 109 243.5 c 128,-1,13
 57 277 57 277 57 345 c 0,14,15
 57 395 57 395 82.5 427 c 128,-1,16
 108 459 108 459 144.5 474 c 128,-1,17
 181 489 181 489 217.5 502 c 128,-1,18
 254 515 254 515 279.5 539 c 128,-1,19
 305 563 305 563 305 602 c 0,20,21
 305 630 305 630 282 647 c 128,-1,22
 259 664 259 664 229 664 c 0,23,24
 178 664 178 664 153 650 c 1,25,-1
 136 717 l 1,26,27
 175 729 175 729 226 729 c 0,28,29
 297 729 297 729 341 691 c 128,-1,30
 385 653 385 653 385 583 c 0,0,1
101 -15 m 0,31,32
 73 -15 73 -15 54 4.5 c 128,-1,33
 35 24 35 24 35 52 c 0,34,35
 35 79 35 79 54 98.5 c 128,-1,36
 73 118 73 118 100 118 c 0,37,38
 128 118 128 118 147.5 99 c 128,-1,39
 167 80 167 80 167 52 c 128,-1,40
 167 24 167 24 147.5 4.5 c 128,-1,41
 128 -15 128 -15 101 -15 c 0,31,32
EndSplineSet
EndChar
StartChar: A
Encoding: 65 65 33
Width: 606
GlyphClass: 2
Flags: W
LayerCount: 2
Back
Fore
SplineSet
561 0 m 1,0,-1
 464 0 l 1,1,-1
 417 249 l 1,2,-1
 190 249 l 1,3,-1
 75 0 l 1,4,-1
 -6 0 l 1,5,-1
 332 724 l 1,6,-1
 419 724 l 1,7,-1
 561 0 l 1,0,-1
404 316 m 1,8,-1
 351 602 l 1,9,-1
 221 316 l 1,10,-1
 404 316 l 1,8,-1
EndSplineSet
EndChar
StartChar: B
Encoding: 66 66 34
Width: 580
GlyphClass: 2
Flags: W
LayerCount: 2
Back
Fore
SplineSet
550 574 m 0,0,1
 550 508 550 508 509.5 460.5 c 128,-1,2
 469 413 469 413 404 395 c 1,3,4
 465 379 465 379 499.5 339 c 128,-1,5
 534 299 534 299 534 235 c 0,6,7
 534 0 534 0 234 0 c 2,8,-1
 45 0 l 1,9,-1
 134 659 l 1,10,-1
 134 724 l 1,11,-1
 356 724 l 2,12,13
 550 724 550 724 550 574 c 0,0,1
456 570 m 0,14,15
 456 655 456 655 345 655 c 2,16,-1
 223 655 l 1,17,-1
 193 427 l 1,18,-1
 292 427 l 2,19,20
 368 427 368 427 412 462.5 c 128,-1,21
 456 498 456 498 456 570 c 0,14,15
441 241 m 0,22,23
 441 300 441 300 397 327.5 c 128,-1,24
 353 355 353 355 288 355 c 2,25,-1
 182 355 l 1,26,-1
 145 69 l 1,27,-1
 248 69 l 2,28,29
 338 69 338 69 389.5 111 c 128,-1,30
 441 153 441 153 441 241 c 0,22,23
EndSplineSet
EndChar
StartChar: C
Encoding: 67 67 35
Width: 585
GlyphClass: 2
Flags: W
LayerCount: 2
Back
Fore
SplineSet
620 657 m 1,0,-1
 564 599 l 1,1,2
 507 665 507 665 413 665 c 0,3,4
 346 665 346 665 292 630 c 128,-1,5
 238 595 238 595 206.5 539 c 128,-1,6
 175 483 175 483 158.5 419 c 128,-1,7
 142 355 142 355 142 292 c 0,8,9
 142 191 142 191 188.5 128 c 128,-1,10
 235 65 235 65 333 65 c 0,11,12
 426 65 426 65 510 127 c 1,13,-1
 541 59 l 1,14,15
 444 -10 444 -10 322 -10 c 0,16,17
 189 -10 189 -10 117 77 c 128,-1,18
 45 164 45 164 45 298 c 0,19,20
 45 381 45 381 70.5 458.5 c 128,-1,21
 96 536 96 536 142.5 597.5 c 128,-1,22
 189 659 189 659 262 696.5 c 128,-1,23
 335 734 335 734 423 734 c 0,24,25
 554 734 554 734 620 657 c 1,0,-1
EndSplineSet
EndChar
StartChar: D
Encoding: 68 68 36
Width: 679
GlyphClass: 2
Flags: W
LayerCount: 2
Back
Fore
SplineSet
639 434 m 0,0,1
 639 351 639 351 616.5 275 c 128,-1,2
 594 199 594 199 551 136.5 c 128,-1,3
 508 74 508 74 436.5 37 c 128,-1,4
 365 0 365 0 275 0 c 2,5,-1
 45 0 l 1,6,-1
 134 659 l 1,7,-1
 134 724 l 1,8,-1
 378 724 l 2,9,10
 508 724 508 724 573.5 643.5 c 128,-1,11
 639 563 639 563 639 434 c 0,0,1
545 430 m 0,12,13
 545 527 545 527 503.5 591 c 128,-1,14
 462 655 462 655 369 655 c 2,15,-1
 223 655 l 1,16,-1
 145 69 l 1,17,-1
 281 69 l 2,18,19
 348 69 348 69 400.5 103.5 c 128,-1,20
 453 138 453 138 483.5 193 c 128,-1,21
 514 248 514 248 529.5 309 c 128,-1,22
 545 370 545 370 545 430 c 0,12,13
EndSplineSet
EndChar
StartChar: E
Encoding: 69 69 37
Width: 500
GlyphClass: 2
Flags: W
LayerCount: 2
Back
Fore
SplineSet
544 724 m 1,0,-1
 534 655 l 1,1,-1
 221 655 l 1,2,-1
 189 405 l 1,3,-1
 431 405 l 1,4,-1
 421 337 l 1,5,-1
 179 337 l 1,6,-1
 143 69 l 1,7,-1
 456 69 l 1,8,-1
 447 0 l 1,9,-1
 45 0 l 1,10,-1
 133 659 l 1,11,-1
 133 724 l 1,12,-1
 544 724 l 1,0,-1
EndSplineSet
EndChar
StartChar: F
Encoding: 70 70 38
Width: 468
GlyphClass: 2
Flags: W
LayerCount: 2
Back
Fore
SplineSet
512 724 m 1,0,-1
 503 655 l 1,1,-1
 221 655 l 1,2,-1
 189 406 l 1,3,-1
 412 406 l 1,4,-1
 402 338 l 1,5,-1
 179 338 l 1,6,-1
 133 0 l 1,7,-1
 44 0 l 1,8,-1
 132 659 l 1,9,-1
 132 724 l 1,10,-1
 512 724 l 1,0,-1
EndSplineSet
EndChar
StartChar: G
Encoding: 71 71 39
Width: 667
GlyphClass: 2
Flags: W
LayerCount: 2
Back
Fore
SplineSet
640 651 m 1,0,-1
 583 592 l 1,1,2
 545 631 545 631 506 648 c 128,-1,3
 467 665 467 665 413 665 c 0,4,5
 344 665 344 665 289.5 630.5 c 128,-1,6
 235 596 235 596 203.5 540.5 c 128,-1,7
 172 485 172 485 156 421.5 c 128,-1,8
 140 358 140 358 140 292 c 0,9,10
 140 192 140 192 184 128.5 c 128,-1,11
 228 65 228 65 323 65 c 0,12,13
 397 65 397 65 449 115 c 128,-1,14
 501 165 501 165 511 240 c 2,15,-1
 519 305 l 1,16,-1
 350 305 l 1,17,-1
 359 373 l 1,18,-1
 619 373 l 1,19,20
 594 203 594 203 576 0 c 1,21,-1
 528 0 l 1,22,-1
 509 75 l 1,23,24
 420 -10 420 -10 299 -10 c 0,25,26
 173 -10 173 -10 109 71.5 c 128,-1,27
 45 153 45 153 45 281 c 0,28,29
 45 366 45 366 69.5 445.5 c 128,-1,30
 94 525 94 525 139.5 590 c 128,-1,31
 185 655 185 655 258.5 694.5 c 128,-1,32
 332 734 332 734 422 734 c 0,33,34
 481 734 481 734 543.5 713.5 c 128,-1,35
 606 693 606 693 640 651 c 1,0,-1
EndSplineSet
EndChar
StartChar: H
Encoding: 72 72 40
Width: 672
GlyphClass: 2
Flags: W
LayerCount: 2
Back
Fore
SplineSet
656 724 m 1,0,-1
 558 0 l 1,1,-1
 468 0 l 1,2,-1
 514 342 l 1,3,-1
 180 342 l 1,4,-1
 134 0 l 1,5,-1
 44 0 l 1,6,-1
 133 659 l 1,7,-1
 133 724 l 1,8,-1
 232 724 l 1,9,-1
 190 410 l 1,10,-1
 524 410 l 1,11,-1
 566 724 l 1,12,-1
 656 724 l 1,0,-1
EndSplineSet
EndChar
StartChar: I
Encoding: 73 73 41
Width: 251
GlyphClass: 2
Flags: W
LayerCount: 2
Back
Fore
SplineSet
235 724 m 1,0,-1
 137 0 l 1,1,-1
 47 0 l 1,2,-1
 136 659 l 1,3,-1
 136 724 l 1,4,-1
 235 724 l 1,0,-1
EndSplineSet
EndChar
StartChar: J
Encoding: 74 74 42
Width: 253
GlyphClass: 2
Flags: W
LayerCount: 2
Back
Fore
SplineSet
238 724 m 1,0,-1
 139 9 l 2,1,2
 123 -106 123 -106 77.5 -167.5 c 128,-1,3
 32 -229 32 -229 -67 -229 c 0,4,5
 -138 -229 -138 -229 -181 -197 c 1,6,-1
 -141 -140 l 1,7,8
 -106 -165 -106 -165 -68 -165 c 0,9,10
 27 -165 27 -165 52 17 c 2,11,-1
 140 660 l 1,12,-1
 140 724 l 1,13,-1
 238 724 l 1,0,-1
EndSplineSet
EndChar
StartChar: L
Encoding: 76 76 44
Width: 471
GlyphClass: 2
Flags: W
LayerCount: 2
Back
Fore
SplineSet
435 69 m 1,0,-1
 425 0 l 1,1,-1
 45 0 l 1,2,-1
 134 659 l 1,3,-1
 134 724 l 1,4,-1
 234 724 l 1,5,-1
 146 69 l 1,6,-1
 435 69 l 1,0,-1
EndSplineSet
EndChar
StartChar: M
Encoding: 77 77 45
Width: 789
GlyphClass: 2
Flags: W
LayerCount: 2
Back
Fore
SplineSet
773 724 m 1,0,-1
 675 0 l 1,1,-1
 585 0 l 1,2,-1
 664 589 l 1,3,-1
 378 -2 l 1,4,-1
 325 -2 l 1,5,-1
 197 590 l 1,6,-1
 117 0 l 1,7,-1
 44 0 l 1,8,-1
 132 660 l 1,9,-1
 132 724 l 1,10,-1
 256 724 l 1,11,-1
 381 161 l 1,12,-1
 655 724 l 1,13,-1
 773 724 l 1,0,-1
EndSplineSet
EndChar
StartChar: N
Encoding: 78 78 46
Width: 674
GlyphClass: 2
Flags: W
LayerCount: 2
Back
Fore
SplineSet
657 724 m 1,0,-1
 559 -5 l 1,1,-1
 502 -5 l 1,2,-1
 201 612 l 1,3,-1
 119 0 l 1,4,-1
 45 0 l 1,5,-1
 134 659 l 1,6,-1
 134 724 l 1,7,-1
 248 724 l 1,8,-1
 510 183 l 1,9,-1
 584 724 l 1,10,-1
 657 724 l 1,0,-1
EndSplineSet
EndChar
StartChar: O
Encoding: 79 79 47
Width: 709
GlyphClass: 2
Flags: W
LayerCount: 2
Back
Fore
SplineSet
668 438 m 0,0,1
 668 353 668 353 644.5 274 c 128,-1,2
 621 195 621 195 577 131 c 128,-1,3
 533 67 533 67 462 28.5 c 128,-1,4
 391 -10 391 -10 304 -10 c 0,5,6
 175 -10 175 -10 110 74 c 128,-1,7
 45 158 45 158 45 289 c 0,8,9
 45 354 45 354 59 417 c 128,-1,10
 73 480 73 480 103 537.5 c 128,-1,11
 133 595 133 595 175 638.5 c 128,-1,12
 217 682 217 682 277 708 c 128,-1,13
 337 734 337 734 407 734 c 0,14,15
 538 734 538 734 603 652 c 128,-1,16
 668 570 668 570 668 438 c 0,0,1
574 433 m 0,17,18
 574 533 574 533 532.5 599 c 128,-1,19
 491 665 491 665 398 665 c 0,20,21
 332 665 332 665 280 629.5 c 128,-1,22
 228 594 228 594 198.5 537 c 128,-1,23
 169 480 169 480 154.5 417 c 128,-1,24
 140 354 140 354 140 291 c 128,-1,25
 140 228 140 228 155 178.5 c 128,-1,26
 170 129 170 129 211.5 94 c 128,-1,27
 253 59 253 59 317 59 c 0,28,29
 384 59 384 59 435.5 94.5 c 128,-1,30
 487 130 487 130 516 187.5 c 128,-1,31
 545 245 545 245 559.5 307.5 c 128,-1,32
 574 370 574 370 574 433 c 0,17,18
EndSplineSet
EndChar
StartChar: P
Encoding: 80 80 48
Width: 539
GlyphClass: 2
Flags: W
LayerCount: 2
Back
Fore
SplineSet
544 543 m 0,0,1
 544 427 544 427 470.5 356.5 c 128,-1,2
 397 286 397 286 279 286 c 2,3,-1
 175 286 l 1,4,-1
 137 0 l 1,5,-1
 46 0 l 1,6,-1
 135 659 l 1,7,-1
 135 724 l 1,8,-1
 332 724 l 2,9,10
 428 724 428 724 486 681 c 128,-1,11
 544 638 544 638 544 543 c 0,0,1
450 532 m 0,12,13
 450 592 450 592 417 623.5 c 128,-1,14
 384 655 384 655 324 655 c 2,15,-1
 225 655 l 1,16,-1
 185 353 l 1,17,-1
 285 353 l 2,18,19
 360 353 360 353 405 404.5 c 128,-1,20
 450 456 450 456 450 532 c 0,12,13
EndSplineSet
EndChar
StartChar: Q
Encoding: 81 81 49
Width: 714
GlyphClass: 2
Flags: W
LayerCount: 2
Back
Fore
SplineSet
1084 -175 m 1,0,1
 1011 -200 1011 -200 963 -211 c 128,-1,2
 915 -222 915 -222 857 -222 c 0,3,4
 790 -222 790 -222 704.5 -191.5 c 128,-1,5
 619 -161 619 -161 551.5 -124 c 128,-1,6
 484 -87 484 -87 407.5 -52 c 128,-1,7
 331 -17 331 -17 281 -11 c 0,8,9
 198 -1 198 -1 143 45.5 c 128,-1,10
 88 92 88 92 66.5 152.5 c 128,-1,11
 45 213 45 213 45 287 c 0,12,13
 45 369 45 369 68 447 c 128,-1,14
 91 525 91 525 134.5 590 c 128,-1,15
 178 655 178 655 249 694.5 c 128,-1,16
 320 734 320 734 407 734 c 0,17,18
 538 734 538 734 603 651 c 128,-1,19
 668 568 668 568 668 436 c 0,20,21
 668 305 668 305 609 185.5 c 128,-1,22
 550 66 550 66 439 15 c 1,23,24
 473 2 473 2 493 -10 c 0,25,26
 757 -158 757 -158 899 -158 c 0,27,28
 964 -158 964 -158 1069 -128 c 1,29,-1
 1084 -175 l 1,0,1
574 430 m 0,30,31
 574 531 574 531 532.5 598 c 128,-1,32
 491 665 491 665 398 665 c 0,33,34
 332 665 332 665 280 629 c 128,-1,35
 228 593 228 593 198.5 535.5 c 128,-1,36
 169 478 169 478 154.5 415 c 128,-1,37
 140 352 140 352 140 289 c 0,38,39
 140 242 140 242 149 202.5 c 128,-1,40
 158 163 158 163 177.5 129 c 128,-1,41
 197 95 197 95 232.5 75.5 c 128,-1,42
 268 56 268 56 317 56 c 0,43,44
 384 56 384 56 435.5 91.5 c 128,-1,45
 487 127 487 127 516 184.5 c 128,-1,46
 545 242 545 242 559.5 304.5 c 128,-1,47
 574 367 574 367 574 430 c 0,30,31
EndSplineSet
EndChar
StartChar: R
Encoding: 82 82 50
Width: 569
GlyphClass: 2
Flags: W
LayerCount: 2
Back
Fore
SplineSet
545 556 m 0,0,1
 545 483 545 483 501 423.5 c 128,-1,2
 457 364 457 364 386 343 c 1,3,-1
 534 0 l 1,4,-1
 431 0 l 1,5,-1
 296 326 l 1,6,7
 273 324 273 324 206 324 c 2,8,-1
 178 324 l 1,9,-1
 135 0 l 1,10,-1
 44 0 l 1,11,-1
 133 659 l 1,12,-1
 133 724 l 1,13,-1
 349 724 l 2,14,15
 435 724 435 724 490 683 c 128,-1,16
 545 642 545 642 545 556 c 0,0,1
451 549 m 0,17,18
 451 601 451 601 416 628 c 128,-1,19
 381 655 381 655 326 655 c 2,20,-1
 223 655 l 1,21,-1
 188 392 l 1,22,-1
 261 392 l 2,23,24
 348 392 348 392 399.5 430 c 128,-1,25
 451 468 451 468 451 549 c 0,17,18
EndSplineSet
EndChar
StartChar: S
Encoding: 83 83 51
Width: 507
GlyphClass: 2
Flags: W
LayerCount: 2
Back
Fore
SplineSet
498 687 m 1,0,-1
 456 619 l 1,1,2
 399 665 399 665 331 665 c 0,3,4
 274 665 274 665 232 634 c 128,-1,5
 190 603 190 603 190 550 c 0,6,7
 190 518 190 518 210 492 c 128,-1,8
 230 466 230 466 259.5 449 c 128,-1,9
 289 432 289 432 324 410.5 c 128,-1,10
 359 389 359 389 388.5 366.5 c 128,-1,11
 418 344 418 344 438 306.5 c 128,-1,12
 458 269 458 269 458 221 c 0,13,14
 458 118 458 118 385 54 c 128,-1,15
 312 -10 312 -10 207 -10 c 0,16,17
 109 -10 109 -10 12 44 c 1,18,-1
 54 119 l 1,19,20
 101 85 101 85 132 72 c 128,-1,21
 163 59 163 59 211 59 c 0,22,23
 271 59 271 59 317.5 104 c 128,-1,24
 364 149 364 149 364 208 c 0,25,26
 364 250 364 250 336.5 281 c 128,-1,27
 309 312 309 312 270 333.5 c 128,-1,28
 231 355 231 355 192 378.5 c 128,-1,29
 153 402 153 402 125.5 441.5 c 128,-1,30
 98 481 98 481 98 535 c 0,31,32
 98 629 98 629 168 681.5 c 128,-1,33
 238 734 238 734 338 734 c 0,34,35
 428 734 428 734 498 687 c 1,0,-1
EndSplineSet
EndChar
StartChar: T
Encoding: 84 84 52
Width: 514
GlyphClass: 2
Flags: W
LayerCount: 2
Back
Fore
SplineSet
558 724 m 1,0,-1
 549 655 l 1,1,-1
 340 655 l 1,2,-1
 252 0 l 1,3,-1
 161 0 l 1,4,-1
 249 655 l 1,5,-1
 40 655 l 1,6,-1
 50 724 l 1,7,-1
 558 724 l 1,0,-1
EndSplineSet
EndChar
StartChar: U
Encoding: 85 85 53
Width: 638
GlyphClass: 2
Flags: W
LayerCount: 2
Back
Fore
SplineSet
623 724 m 1,0,-1
 559 257 l 2,1,2
 543 136 543 136 472.5 63 c 128,-1,3
 402 -10 402 -10 268 -10 c 0,4,5
 151 -10 151 -10 98.5 45.5 c 128,-1,6
 46 101 46 101 46 192 c 0,7,8
 46 208 46 208 50 244 c 2,9,-1
 106 660 l 1,10,-1
 106 724 l 1,11,-1
 206 724 l 1,12,-1
 141 243 l 2,13,14
 138 219 138 219 138 200 c 0,15,16
 138 135 138 135 172 97 c 128,-1,17
 206 59 206 59 280 59 c 0,18,19
 370 59 370 59 422 112 c 128,-1,20
 474 165 474 165 486 258 c 2,21,-1
 549 724 l 1,22,-1
 623 724 l 1,0,-1
EndSplineSet
EndChar
StartChar: V
Encoding: 86 86 54
Width: 518
GlyphClass: 2
Flags: W
LayerCount: 2
Back
Fore
SplineSet
578 724 m 1,0,-1
 241 -3 l 1,1,-1
 185 -3 l 1,2,-1
 44 724 l 1,3,-1
 139 724 l 1,4,-1
 242 163 l 1,5,-1
 501 724 l 1,6,-1
 578 724 l 1,0,-1
EndSplineSet
EndChar
StartChar: W
Encoding: 87 87 55
Width: 795
GlyphClass: 2
Flags: W
LayerCount: 2
Back
Fore
SplineSet
854 724 m 1,0,-1
 567 -3 l 1,1,-1
 494 -3 l 1,2,-1
 425 537 l 1,3,-1
 212 -3 l 1,4,-1
 139 -3 l 1,5,-1
 44 724 l 1,6,-1
 138 724 l 1,7,-1
 208 172 l 1,8,-1
 424 724 l 1,9,-1
 494 724 l 1,10,-1
 563 172 l 1,11,-1
 780 724 l 1,12,-1
 854 724 l 1,0,-1
EndSplineSet
EndChar
StartChar: X
Encoding: 88 88 56
Width: 545
GlyphClass: 2
Flags: W
LayerCount: 2
Back
Fore
SplineSet
578 724 m 1,0,-1
 332 389 l 1,1,-1
 502 0 l 1,2,-1
 398 0 l 1,3,-1
 267 298 l 1,4,-1
 51 0 l 1,5,-1
 -33 0 l 1,6,-1
 236 372 l 1,7,-1
 83 724 l 1,8,-1
 185 724 l 1,9,-1
 301 460 l 1,10,-1
 493 724 l 1,11,-1
 578 724 l 1,0,-1
EndSplineSet
EndChar
StartChar: Y
Encoding: 89 89 57
Width: 478
GlyphClass: 2
Flags: W
LayerCount: 2
Back
Fore
SplineSet
538 724 m 1,0,-1
 290 358 l 1,1,-1
 242 0 l 1,2,-1
 151 0 l 1,3,-1
 199 359 l 1,4,-1
 42 724 l 1,5,-1
 145 724 l 1,6,-1
 267 444 l 1,7,-1
 454 724 l 1,8,-1
 538 724 l 1,0,-1
EndSplineSet
EndChar
StartChar: Z
Encoding: 90 90 58
Width: 532
GlyphClass: 2
Flags: W
LayerCount: 2
Back
Fore
SplineSet
546 724 m 1,0,-1
 537 657 l 1,1,-1
 99 69 l 1,2,-1
 470 69 l 1,3,-1
 454 0 l 1,4,-1
 -17 0 l 1,5,-1
 -8 67 l 1,6,-1
 430 655 l 1,7,-1
 92 655 l 1,8,-1
 101 724 l 1,9,-1
 546 724 l 1,0,-1
EndSplineSet
EndChar
StartChar: bracketleft
Encoding: 91 91 59
Width: 332
GlyphClass: 2
Flags: W
LayerCount: 2
Back
Fore
SplineSet
361 724 m 1,0,-1
 354 675 l 1,1,-1
 234 675 l 1,2,-1
 128 -81 l 1,3,-1
 248 -81 l 1,4,-1
 240 -130 l 1,5,-1
 42 -130 l 1,6,-1
 163 724 l 1,7,-1
 361 724 l 1,0,-1
EndSplineSet
EndChar
StartChar: bracketright
Encoding: 93 93 61
Width: 327
GlyphClass: 2
Flags: W
LayerCount: 2
Back
Fore
SplineSet
309 724 m 1,0,-1
 188 -128 l 1,1,-1
 -10 -128 l 1,2,-1
 -2 -79 l 1,3,-1
 118 -79 l 1,4,-1
 224 676 l 1,5,-1
 103 676 l 1,6,-1
 111 724 l 1,7,-1
 309 724 l 1,0,-1
EndSplineSet
EndChar
StartChar: asciicircum
Encoding: 94 94 62
Width: 618
GlyphClass: 2
Flags: W
LayerCount: 2
Back
Fore
SplineSet
563 0 m 1,0,-1
 487 0 l 1,1,-1
 310 400 l 1,2,-1
 133 0 l 1,3,-1
 56 0 l 1,4,-1
 272 491 l 1,5,-1
 345 491 l 1,6,-1
 563 0 l 1,0,-1
EndSplineSet
EndChar
StartChar: underscore
Encoding: 95 95 63
Width: 462
GlyphClass: 2
Flags: W
LayerCount: 2
Back
Fore
SplineSet
480 -73 m 1,0,-1
 471 -128 l 1,1,-1
 -21 -128 l 1,2,-1
 -12 -73 l 1,3,-1
 480 -73 l 1,0,-1
EndSplineSet
EndChar
StartChar: grave
Encoding: 96 96 64
Width: 248
GlyphClass: 2
Flags: W
LayerCount: 2
Back
Fore
SplineSet
250 577 m 1,0,-1
 177 577 l 1,1,-1
 50 724 l 1,2,-1
 168 724 l 1,3,-1
 250 577 l 1,0,-1
EndSplineSet
EndChar
StartChar: a
Encoding: 97 97 65
Width: 526
GlyphClass: 2
Flags: W
LayerCount: 2
Back
Fore
SplineSet
500 12 m 1,0,1
 458 -11 458 -11 425 -11 c 0,2,3
 390 -11 390 -11 368.5 13 c 128,-1,4
 347 37 347 37 346 74 c 1,5,-1
 342 74 l 1,6,7
 285 -13 285 -13 194 -13 c 0,8,9
 117 -13 117 -13 77 40.5 c 128,-1,10
 37 94 37 94 37 178 c 0,11,12
 37 233 37 233 56 290 c 128,-1,13
 75 347 75 347 108.5 394.5 c 128,-1,14
 142 442 142 442 192.5 472.5 c 128,-1,15
 243 503 243 503 300 503 c 0,16,17
 372 503 372 503 409 456 c 1,18,-1
 430 495 l 1,19,-1
 474 495 l 1,20,-1
 418 115 l 2,21,22
 416 101 416 101 416 94 c 0,23,24
 416 54 416 54 449 54 c 0,25,26
 465 54 465 54 489 62 c 1,27,-1
 500 12 l 1,0,1
382 403 m 1,28,29
 349 441 349 441 303 441 c 0,30,31
 247 441 247 441 205.5 393.5 c 128,-1,32
 164 346 164 346 147 287 c 128,-1,33
 130 228 130 228 130 174 c 0,34,35
 130 124 130 124 148.5 86.5 c 128,-1,36
 167 49 167 49 210 49 c 0,37,38
 254 49 254 49 287.5 88 c 128,-1,39
 321 127 321 127 339.5 181.5 c 128,-1,40
 358 236 358 236 368 307 c 2,41,-1
 382 403 l 1,28,29
EndSplineSet
EndChar
StartChar: b
Encoding: 98 98 66
Width: 501
GlyphClass: 2
Flags: W
LayerCount: 2
Back
Fore
SplineSet
463 318 m 0,0,1
 463 181 463 181 380.5 84 c 128,-1,2
 298 -13 298 -13 162 -13 c 0,3,4
 130 -13 130 -13 94.5 -1 c 128,-1,5
 59 11 59 11 37 33 c 1,6,-1
 124 707 l 1,7,-1
 124 764 l 1,8,-1
 212 764 l 1,9,-1
 169 444 l 1,10,11
 238 503 238 503 304 503 c 0,12,13
 383 503 383 503 423 450.5 c 128,-1,14
 463 398 463 398 463 318 c 0,0,1
375 322 m 0,15,16
 375 441 375 441 290 441 c 0,17,18
 255 441 255 441 218.5 419.5 c 128,-1,19
 182 398 182 398 159 367 c 1,20,-1
 126 109 l 2,21,22
 125 101 125 101 125 98 c 0,23,24
 125 49 125 49 183 49 c 0,25,26
 243 49 243 49 288.5 95.5 c 128,-1,27
 334 142 334 142 354.5 202.5 c 128,-1,28
 375 263 375 263 375 322 c 0,15,16
EndSplineSet
EndChar
StartChar: c
Encoding: 99 99 67
Width: 421
GlyphClass: 2
Flags: W
LayerCount: 2
Back
Fore
SplineSet
430 452 m 1,0,-1
 380 397 l 1,1,2
 336 441 336 441 279 441 c 0,3,4
 229 441 229 441 192 401 c 128,-1,5
 155 361 155 361 139 310 c 128,-1,6
 123 259 123 259 123 210 c 0,7,8
 123 148 123 148 150.5 102 c 128,-1,9
 178 56 178 56 234 56 c 0,10,11
 268 56 268 56 294 66 c 128,-1,12
 320 76 320 76 355 100 c 1,13,-1
 383 36 l 1,14,15
 334 9 334 9 301 -2 c 128,-1,16
 268 -13 268 -13 221 -13 c 0,17,18
 132 -13 132 -13 84 46 c 128,-1,19
 36 105 36 105 36 197 c 0,20,21
 36 322 36 322 107.5 412.5 c 128,-1,22
 179 503 179 503 297 503 c 0,23,24
 373 503 373 503 430 452 c 1,0,-1
EndSplineSet
EndChar
StartChar: d
Encoding: 100 100 68
Width: 526
GlyphClass: 2
Flags: W
LayerCount: 2
Back
Fore
SplineSet
509 764 m 1,0,-1
 416 104 l 2,1,2
 415 95 415 95 415 92 c 0,3,4
 415 54 415 54 448 54 c 0,5,6
 456 54 456 54 466 56 c 128,-1,7
 476 58 476 58 482 60 c 2,8,-1
 488 62 l 1,9,-1
 499 12 l 1,10,11
 455 -11 455 -11 424 -11 c 0,12,13
 389 -11 389 -11 367 12.5 c 128,-1,14
 345 36 345 36 345 70 c 2,15,-1
 345 74 l 1,16,-1
 341 74 l 1,17,18
 280 -13 280 -13 194 -13 c 0,19,20
 114 -13 114 -13 75 40.5 c 128,-1,21
 36 94 36 94 36 176 c 0,22,23
 36 250 36 250 67 324 c 128,-1,24
 98 398 98 398 160.5 450.5 c 128,-1,25
 223 503 223 503 299 503 c 0,26,27
 353 503 353 503 388 464 c 1,28,-1
 422 710 l 1,29,-1
 422 764 l 1,30,-1
 509 764 l 1,0,-1
377 383 m 2,31,-1
 379 404 l 1,32,33
 349 441 349 441 301 441 c 0,34,35
 246 441 246 441 204.5 392.5 c 128,-1,36
 163 344 163 344 145.5 285 c 128,-1,37
 128 226 128 226 128 173 c 0,38,39
 128 123 128 123 146.5 86.5 c 128,-1,40
 165 50 165 50 210 50 c 0,41,42
 240 50 240 50 264.5 66 c 128,-1,43
 289 82 289 82 306 113.5 c 128,-1,44
 323 145 323 145 335 174 c 128,-1,45
 347 203 347 203 355.5 249.5 c 128,-1,46
 364 296 364 296 368 319.5 c 128,-1,47
 372 343 372 343 377 383 c 2,31,-1
EndSplineSet
EndChar
StartChar: e
Encoding: 101 101 69
Width: 465
GlyphClass: 2
Flags: W
LayerCount: 2
Back
Fore
SplineSet
428 397 m 0,0,1
 428 306 428 306 330 248 c 0,2,3
 256 204 256 204 122 202 c 1,4,-1
 122 197 l 2,5,6
 122 138 122 138 152 97.5 c 128,-1,7
 182 57 182 57 239 57 c 0,8,9
 312 57 312 57 378 102 c 1,10,-1
 407 43 l 1,11,12
 328 -13 328 -13 234 -13 c 0,13,14
 144 -13 144 -13 90.5 44 c 128,-1,15
 37 101 37 101 37 192 c 0,16,17
 37 313 37 313 110 408 c 128,-1,18
 183 503 183 503 300 503 c 0,19,20
 356 503 356 503 392 477 c 128,-1,21
 428 451 428 451 428 397 c 0,0,1
344 390 m 0,22,23
 344 415 344 415 328.5 428 c 128,-1,24
 313 441 313 441 287 441 c 0,25,26
 228 441 228 441 180.5 381.5 c 128,-1,27
 133 322 133 322 127 260 c 1,28,29
 221 260 221 260 275 293 c 0,30,31
 302 310 302 310 323 336.5 c 128,-1,32
 344 363 344 363 344 390 c 0,22,23
EndSplineSet
EndChar
StartChar: f
Encoding: 102 102 70
Width: 250
GlyphClass: 2
Flags: W
LayerCount: 2
Back
Fore
SplineSet
457 731 m 1,0,-1
 418 672 l 1,1,2
 385 707 385 707 343 707 c 0,3,4
 304 707 304 707 276.5 688.5 c 128,-1,5
 249 670 249 670 233.5 636 c 128,-1,6
 218 602 218 602 210 568.5 c 128,-1,7
 202 535 202 535 197 490 c 1,8,-1
 309 490 l 1,9,-1
 301 427 l 1,10,-1
 189 427 l 1,11,-1
 122 -61 l 2,12,13
 98 -230 98 -230 -43 -230 c 0,14,15
 -105 -230 -105 -230 -155 -198 c 1,16,-1
 -115 -141 l 1,17,18
 -93 -156 -93 -156 -80.5 -161 c 128,-1,19
 -68 -166 -68 -166 -45 -166 c 0,20,21
 29 -166 29 -166 44 -52 c 2,22,-1
 109 427 l 1,23,-1
 38 427 l 1,24,-1
 46 490 l 1,25,-1
 118 490 l 1,26,27
 124 538 124 538 132 575 c 128,-1,28
 140 612 140 612 156.5 650 c 128,-1,29
 173 688 173 688 196 713 c 128,-1,30
 219 738 219 738 255 754 c 128,-1,31
 291 770 291 770 337 770 c 0,32,33
 400 770 400 770 457 731 c 1,0,-1
EndSplineSet
EndChar
StartChar: g
Encoding: 103 103 71
Width: 515
GlyphClass: 2
Flags: W
LayerCount: 2
Back
Fore
SplineSet
477 512 m 1,0,-1
 419 93 l 2,1,2
 412 43 412 43 403 3 c 128,-1,3
 394 -37 394 -37 375 -82.5 c 128,-1,4
 356 -128 356 -128 330 -158.5 c 128,-1,5
 304 -189 304 -189 262.5 -209.5 c 128,-1,6
 221 -230 221 -230 168 -230 c 0,7,8
 93 -230 93 -230 18 -185 c 1,9,-1
 59 -122 l 1,10,11
 109 -168 109 -168 159 -168 c 0,12,13
 294 -168 294 -168 339 74 c 1,14,-1
 336 75 l 1,15,16
 286 -13 286 -13 197 -13 c 0,17,18
 120 -13 120 -13 79.5 41 c 128,-1,19
 39 95 39 95 39 176 c 0,20,21
 39 253 39 253 70.5 327 c 128,-1,22
 102 401 102 401 166 452 c 128,-1,23
 230 503 230 503 311 503 c 0,24,25
 356 503 356 503 403 481 c 1,26,-1
 477 512 l 1,0,-1
386 422 m 1,27,28
 352 441 352 441 313 441 c 0,29,30
 254 441 254 441 210.5 395 c 128,-1,31
 167 349 167 349 149 290 c 128,-1,32
 131 231 131 231 131 173 c 0,33,34
 131 123 131 123 150.5 86 c 128,-1,35
 170 49 170 49 213 49 c 0,36,37
 330 49 330 49 370 315 c 2,38,-1
 386 422 l 1,27,28
EndSplineSet
EndChar
StartChar: h
Encoding: 104 104 72
Width: 493
GlyphClass: 2
Flags: W
LayerCount: 2
Back
Fore
SplineSet
450 328 m 2,0,-1
 415 58 l 1,1,-1
 417 0 l 1,2,-1
 326 0 l 1,3,-1
 366 302 l 2,4,5
 370 334 370 334 370 354 c 0,6,7
 370 431 370 431 306 431 c 0,8,9
 249 431 249 431 168 365 c 1,10,-1
 119 0 l 1,11,-1
 39 0 l 1,12,-1
 134 707 l 1,13,-1
 134 764 l 1,14,-1
 222 764 l 1,15,-1
 175 428 l 1,16,17
 250 503 250 503 327 503 c 0,18,19
 453 503 453 503 453 373 c 0,20,21
 453 352 453 352 450 328 c 2,0,-1
EndSplineSet
EndChar
StartChar: i
Encoding: 105 105 73
Width: 228
GlyphClass: 2
Flags: W
LayerCount: 2
Back
Fore
SplineSet
227 668 m 0,0,1
 227 642 227 642 207.5 622 c 128,-1,2
 188 602 188 602 161 602 c 0,3,4
 139 602 139 602 124.5 616.5 c 128,-1,5
 110 631 110 631 110 652 c 0,6,7
 110 677 110 677 130 698 c 128,-1,8
 150 719 150 719 176 719 c 0,9,10
 198 719 198 719 212.5 704 c 128,-1,11
 227 689 227 689 227 668 c 0,0,1
186 490 m 1,12,-1
 128 58 l 1,13,-1
 128 0 l 1,14,-1
 40 0 l 1,15,-1
 98 433 l 1,16,-1
 98 490 l 1,17,-1
 186 490 l 1,12,-1
EndSplineSet
EndChar
StartChar: j
Encoding: 106 106 74
Width: 230
GlyphClass: 2
Flags: W
LayerCount: 2
Back
Fore
SplineSet
229 668 m 0,0,1
 229 642 229 642 209.5 621.5 c 128,-1,2
 190 601 190 601 163 601 c 0,3,4
 140 601 140 601 126 616 c 128,-1,5
 112 631 112 631 112 652 c 0,6,7
 112 678 112 678 131 698 c 128,-1,8
 150 718 150 718 177 718 c 0,9,10
 200 718 200 718 214.5 703.5 c 128,-1,11
 229 689 229 689 229 668 c 0,0,1
189 490 m 1,12,-1
 114 -61 l 2,13,14
 91 -230 91 -230 -51 -230 c 0,15,16
 -112 -230 -112 -230 -164 -198 c 1,17,-1
 -124 -141 l 1,18,19
 -92 -166 -92 -166 -54 -166 c 0,20,21
 20 -166 20 -166 35 -52 c 2,22,-1
 102 433 l 1,23,-1
 102 490 l 1,24,-1
 189 490 l 1,12,-1
EndSplineSet
EndChar
StartChar: k
Encoding: 107 107 75
Width: 426
GlyphClass: 2
Flags: W
LayerCount: 2
Back
Fore
SplineSet
444 490 m 1,0,-1
 237 286 l 1,1,-1
 406 0 l 1,2,-1
 312 0 l 1,3,-1
 155 267 l 1,4,-1
 119 0 l 1,5,-1
 39 0 l 1,6,-1
 135 707 l 1,7,-1
 135 764 l 1,8,-1
 223 764 l 1,9,-1
 159 293 l 1,10,-1
 357 490 l 1,11,-1
 444 490 l 1,0,-1
EndSplineSet
EndChar
StartChar: l
Encoding: 108 108 76
Width: 228
GlyphClass: 2
Flags: W
LayerCount: 2
Back
Fore
SplineSet
223 764 m 1,0,-1
 128 58 l 1,1,-1
 128 0 l 1,2,-1
 39 0 l 1,3,-1
 135 707 l 1,4,-1
 135 764 l 1,5,-1
 223 764 l 1,0,-1
EndSplineSet
EndChar
StartChar: m
Encoding: 109 109 77
Width: 762
GlyphClass: 2
Flags: W
LayerCount: 2
Back
Fore
SplineSet
719 329 m 2,0,-1
 683 58 l 1,1,-1
 683 0 l 1,2,-1
 596 0 l 1,3,-1
 636 303 l 2,4,5
 640 335 640 335 640 353 c 0,6,7
 640 431 640 431 575 431 c 0,8,9
 522 431 522 431 444 364 c 1,10,11
 444 348 444 348 441 329 c 2,12,-1
 398 0 l 1,13,-1
 318 0 l 1,14,-1
 358 303 l 2,15,16
 362 335 362 335 362 355 c 0,17,18
 362 431 362 431 298 431 c 0,19,20
 250 431 250 431 169 365 c 1,21,-1
 120 0 l 1,22,-1
 41 0 l 1,23,-1
 88 359 l 2,24,25
 91 382 91 382 91 402 c 0,26,27
 91 426 91 426 87.5 448 c 128,-1,28
 84 470 84 470 80 480 c 2,29,-1
 76 490 l 1,30,-1
 164 500 l 1,31,32
 173 473 173 473 173 428 c 1,33,34
 257 503 257 503 320 503 c 0,35,36
 412 503 412 503 439 421 c 1,37,38
 530 503 530 503 597 503 c 0,39,40
 722 503 722 503 722 373 c 0,41,42
 722 353 722 353 719 329 c 2,0,-1
EndSplineSet
EndChar
StartChar: n
Encoding: 110 110 78
Width: 494
GlyphClass: 2
Flags: W
LayerCount: 2
Back
Fore
SplineSet
451 329 m 2,0,-1
 415 58 l 1,1,-1
 415 0 l 1,2,-1
 327 0 l 1,3,-1
 368 303 l 2,4,5
 373 346 373 346 373 357 c 0,6,7
 373 431 373 431 308 431 c 0,8,9
 246 431 246 431 170 365 c 1,10,-1
 121 0 l 1,11,-1
 41 0 l 1,12,-1
 88 350 l 2,13,14
 92 375 92 375 92 402 c 0,15,16
 92 428 92 428 88 450 c 128,-1,17
 84 472 84 472 80 481 c 2,18,-1
 76 490 l 1,19,-1
 164 500 l 1,20,21
 171 475 171 475 173 428 c 1,22,23
 257 503 257 503 330 503 c 0,24,25
 454 503 454 503 454 373 c 0,26,27
 454 353 454 353 451 329 c 2,0,-1
EndSplineSet
EndChar
StartChar: o
Encoding: 111 111 79
Width: 508
GlyphClass: 2
Flags: W
LayerCount: 2
Back
Fore
SplineSet
472 294 m 0,0,1
 472 173 472 173 402.5 80 c 128,-1,2
 333 -13 333 -13 220 -13 c 0,3,4
 131 -13 131 -13 84 47.5 c 128,-1,5
 37 108 37 108 37 197 c 0,6,7
 37 275 37 275 65.5 343.5 c 128,-1,8
 94 412 94 412 152.5 457.5 c 128,-1,9
 211 503 211 503 288 503 c 0,10,11
 378 503 378 503 425 443 c 128,-1,12
 472 383 472 383 472 294 c 0,0,1
387 293 m 0,13,14
 387 353 387 353 361.5 397 c 128,-1,15
 336 441 336 441 281 441 c 0,16,17
 229 441 229 441 191 399.5 c 128,-1,18
 153 358 153 358 137.5 306 c 128,-1,19
 122 254 122 254 122 202 c 0,20,21
 122 143 122 143 148 96 c 128,-1,22
 174 49 174 49 227 49 c 0,23,24
 268 49 268 49 300 73 c 128,-1,25
 332 97 332 97 350 135 c 128,-1,26
 368 173 368 173 377.5 214 c 128,-1,27
 387 255 387 255 387 293 c 0,13,14
EndSplineSet
EndChar
StartChar: p
Encoding: 112 112 80
Width: 518
GlyphClass: 2
Flags: W
LayerCount: 2
Back
Fore
SplineSet
479 308 m 0,0,1
 479 231 479 231 448 158 c 128,-1,2
 417 85 417 85 357 36 c 128,-1,3
 297 -13 297 -13 223 -13 c 0,4,5
 196 -13 196 -13 168.5 -2 c 128,-1,6
 141 9 141 9 126 23 c 1,7,-1
 101 -169 l 1,8,-1
 101 -224 l 1,9,-1
 13 -224 l 1,10,-1
 86 333 l 2,11,12
 92 381 92 381 92 405 c 0,13,14
 92 447 92 447 78 490 c 1,15,-1
 166 501 l 1,16,17
 174 455 174 455 174 432 c 2,18,-1
 174 424 l 1,19,20
 228 503 228 503 321 503 c 0,21,22
 398 503 398 503 438.5 447.5 c 128,-1,23
 479 392 479 392 479 308 c 0,0,1
386 314 m 0,24,25
 386 365 386 365 367 403 c 128,-1,26
 348 441 348 441 301 441 c 0,27,28
 181 441 181 441 145 178 c 0,29,30
 142 160 142 160 139 128.5 c 128,-1,31
 136 97 136 97 134 88 c 1,32,33
 149 71 149 71 175 60 c 128,-1,34
 201 49 201 49 226 49 c 0,35,36
 300 49 300 49 343 134 c 128,-1,37
 386 219 386 219 386 314 c 0,24,25
EndSplineSet
EndChar
StartChar: q
Encoding: 113 113 81
Width: 512
GlyphClass: 2
Flags: W
LayerCount: 2
Back
Fore
SplineSet
477 522 m 1,0,-1
 384 -167 l 1,1,-1
 384 -224 l 1,2,-1
 296 -224 l 1,3,-1
 337 67 l 1,4,5
 280 -13 280 -13 194 -13 c 0,6,7
 114 -13 114 -13 75 40.5 c 128,-1,8
 36 94 36 94 36 176 c 0,9,10
 36 227 36 227 54 283 c 128,-1,11
 72 339 72 339 104 388.5 c 128,-1,12
 136 438 136 438 187.5 470.5 c 128,-1,13
 239 503 239 503 299 503 c 256,14,15
 359 503 359 503 406 460 c 1,16,-1
 438 522 l 1,17,-1
 477 522 l 1,0,-1
384 403 m 1,18,19
 353 441 353 441 301 441 c 0,20,21
 245 441 245 441 203.5 391.5 c 128,-1,22
 162 342 162 342 145 283 c 128,-1,23
 128 224 128 224 128 173 c 128,-1,24
 128 122 128 122 147 85.5 c 128,-1,25
 166 49 166 49 210 49 c 0,26,27
 239 49 239 49 262.5 63.5 c 128,-1,28
 286 78 286 78 303 106.5 c 128,-1,29
 320 135 320 135 332.5 164 c 128,-1,30
 345 193 345 193 354.5 234.5 c 128,-1,31
 364 276 364 276 368.5 303 c 128,-1,32
 373 330 373 330 379 368 c 2,33,-1
 384 403 l 1,18,19
EndSplineSet
EndChar
StartChar: r
Encoding: 114 114 82
Width: 327
GlyphClass: 2
Flags: W
LayerCount: 2
Back
Fore
SplineSet
351 502 m 1,0,-1
 319 414 l 1,1,2
 238 414 238 414 167 327 c 1,3,-1
 124 0 l 1,4,-1
 41 0 l 1,5,-1
 87 358 l 2,6,7
 90 382 90 382 90 405 c 0,8,9
 90 461 90 461 73 491 c 1,10,-1
 165 502 l 1,11,12
 175 471 175 471 175 424 c 2,13,-1
 175 411 l 1,14,15
 206 450 206 450 253 476 c 128,-1,16
 300 502 300 502 351 502 c 1,0,-1
EndSplineSet
EndChar
StartChar: s
Encoding: 115 115 83
Width: 376
GlyphClass: 2
Flags: W
LayerCount: 2
Back
Fore
SplineSet
361 470 m 1,0,-1
 327 410 l 1,1,2
 284 441 284 441 235 441 c 0,3,4
 197 441 197 441 169 420.5 c 128,-1,5
 141 400 141 400 141 364 c 0,6,7
 141 342 141 342 160.5 323.5 c 128,-1,8
 180 305 180 305 208 289.5 c 128,-1,9
 236 274 236 274 264 256 c 128,-1,10
 292 238 292 238 311.5 208 c 128,-1,11
 331 178 331 178 331 139 c 0,12,13
 331 67 331 67 279 27 c 128,-1,14
 227 -13 227 -13 153 -13 c 0,15,16
 75 -13 75 -13 6 28 c 1,17,-1
 49 89 l 1,18,19
 97 49 97 49 150 49 c 0,20,21
 190 49 190 49 219 70 c 128,-1,22
 248 91 248 91 248 130 c 0,23,24
 248 156 248 156 228.5 176.5 c 128,-1,25
 209 197 209 197 181.5 212.5 c 128,-1,26
 154 228 154 228 126 245 c 128,-1,27
 98 262 98 262 78.5 290 c 128,-1,28
 59 318 59 318 59 354 c 0,29,30
 59 427 59 427 112 465 c 128,-1,31
 165 503 165 503 240 503 c 0,32,33
 306 503 306 503 361 470 c 1,0,-1
EndSplineSet
EndChar
StartChar: t
Encoding: 116 116 84
Width: 287
GlyphClass: 2
Flags: W
LayerCount: 2
Back
Fore
SplineSet
302 490 m 1,0,-1
 293 427 l 1,1,-1
 180 427 l 1,2,-1
 139 110 l 2,3,4
 137 95 137 95 137 89 c 0,5,6
 137 49 137 49 176 49 c 0,7,8
 197 49 197 49 241 60 c 1,9,-1
 248 7 l 1,10,11
 195 -13 195 -13 152 -13 c 256,12,13
 109 -13 109 -13 83 6.5 c 128,-1,14
 57 26 57 26 57 81 c 1,15,-1
 60 116 l 1,16,-1
 101 427 l 1,17,-1
 32 427 l 1,18,-1
 41 490 l 1,19,-1
 110 490 l 1,20,-1
 130 631 l 1,21,-1
 219 631 l 1,22,-1
 189 490 l 1,23,-1
 302 490 l 1,0,-1
EndSplineSet
EndChar
StartChar: u
Encoding: 117 117 85
Width: 510
GlyphClass: 2
Flags: W
LayerCount: 2
Back
Fore
SplineSet
483 11 m 1,0,1
 439 -12 439 -12 408 -12 c 0,2,3
 379 -12 379 -12 354 10 c 128,-1,4
 329 32 329 32 329 73 c 1,5,-1
 325 73 l 1,6,7
 268 -13 268 -13 168 -13 c 0,8,9
 103 -13 103 -13 71.5 22 c 128,-1,10
 40 57 40 57 40 119 c 0,11,12
 40 138 40 138 43 159 c 2,13,-1
 81 433 l 1,14,-1
 81 490 l 1,15,-1
 168 490 l 1,16,-1
 125 171 l 2,17,18
 122 149 122 149 122 130 c 0,19,20
 122 49 122 49 189 49 c 0,21,22
 239 49 239 49 283.5 101.5 c 128,-1,23
 328 154 328 154 346 279 c 2,24,-1
 368 432 l 1,25,-1
 368 490 l 1,26,-1
 456 490 l 1,27,-1
 405 121 l 2,28,29
 403 101 403 101 403 95 c 0,30,31
 403 53 403 53 431 53 c 0,32,33
 440 53 440 53 450 55.5 c 128,-1,34
 460 58 460 58 466 60 c 2,35,-1
 472 63 l 1,36,-1
 483 11 l 1,0,1
EndSplineSet
EndChar
StartChar: v
Encoding: 118 118 86
Width: 418
GlyphClass: 2
Flags: W
LayerCount: 2
Back
Fore
SplineSet
451 490 m 1,0,-1
 216 -5 l 1,1,-1
 143 -5 l 1,2,-1
 42 490 l 1,3,-1
 126 490 l 1,4,-1
 201 117 l 1,5,-1
 376 490 l 1,6,-1
 451 490 l 1,0,-1
EndSplineSet
EndChar
StartChar: w
Encoding: 119 119 87
Width: 610
GlyphClass: 2
Flags: W
LayerCount: 2
Back
Fore
SplineSet
643 490 m 1,0,-1
 428 -5 l 1,1,-1
 370 -5 l 1,2,-1
 320 332 l 1,3,-1
 173 -5 l 1,4,-1
 115 -5 l 1,5,-1
 42 490 l 1,6,-1
 124 490 l 1,7,-1
 174 156 l 1,8,-1
 319 490 l 1,9,-1
 377 490 l 1,10,-1
 428 156 l 1,11,-1
 572 490 l 1,12,-1
 643 490 l 1,0,-1
EndSplineSet
EndChar
StartChar: x
Encoding: 120 120 88
Width: 388
GlyphClass: 2
Flags: W
LayerCount: 2
Back
Fore
SplineSet
421 490 m 1,0,-1
 244 261 l 1,1,-1
 370 0 l 1,2,-1
 279 0 l 1,3,-1
 188 191 l 1,4,-1
 43 0 l 1,5,-1
 -36 0 l 1,6,-1
 156 254 l 1,7,-1
 42 490 l 1,8,-1
 131 490 l 1,9,-1
 212 324 l 1,10,-1
 342 490 l 1,11,-1
 421 490 l 1,0,-1
EndSplineSet
EndChar
StartChar: y
Encoding: 121 121 89
Width: 410
GlyphClass: 2
Flags: W
LayerCount: 2
Back
Fore
SplineSet
451 490 m 1,0,-1
 203 -51 l 2,1,2
 120 -230 120 -230 -46 -230 c 0,3,4
 -106 -230 -106 -230 -152 -203 c 1,5,-1
 -114 -143 l 1,6,7
 -69 -164 -69 -164 -41 -164 c 0,8,9
 15 -164 15 -164 61 -130 c 128,-1,10
 107 -96 107 -96 135 -30 c 2,11,-1
 149 3 l 1,12,-1
 45 490 l 1,13,-1
 130 490 l 1,14,-1
 203 118 l 1,15,-1
 375 490 l 1,16,-1
 451 490 l 1,0,-1
EndSplineSet
EndChar
StartChar: z
Encoding: 122 122 90
Width: 434
GlyphClass: 2
Flags: W
LayerCount: 2
Back
Fore
SplineSet
423 443 m 1,0,-1
 126 63 l 1,1,-1
 382 63 l 1,2,-1
 372 0 l 1,3,-1
 18 0 l 1,4,-1
 18 48 l 1,5,-1
 313 427 l 1,6,-1
 91 427 l 1,7,-1
 100 490 l 1,8,-1
 423 490 l 1,9,-1
 423 443 l 1,0,-1
EndSplineSet
EndChar
StartChar: braceleft
Encoding: 123 123 91
Width: 321
GlyphClass: 2
Flags: W
LayerCount: 2
Back
Fore
SplineSet
350 730 m 1,0,-1
 343 683 l 1,1,2
 291 683 291 683 272 663 c 128,-1,3
 253 643 253 643 246 591 c 2,4,-1
 223 426 l 2,5,6
 208 319 208 319 142 296 c 1,7,8
 189 275 189 275 189 209 c 0,9,10
 189 190 189 190 186 166 c 2,11,-1
 163 1 l 2,12,13
 160 -17 160 -17 160 -31 c 0,14,15
 160 -64 160 -64 177 -77 c 128,-1,16
 194 -90 194 -90 234 -90 c 1,17,-1
 227 -137 l 1,18,19
 149 -137 149 -137 116.5 -108 c 128,-1,20
 84 -79 84 -79 84 -17 c 0,21,22
 84 1 84 1 88 26 c 2,23,-1
 110 179 l 2,24,25
 113 194 113 194 113 211 c 0,26,27
 113 274 113 274 62 274 c 1,28,-1
 69 320 l 1,29,30
 128 321 128 321 142 412 c 2,31,-1
 165 568 l 2,32,33
 177 651 177 651 218.5 690.5 c 128,-1,34
 260 730 260 730 350 730 c 1,0,-1
EndSplineSet
EndChar
StartChar: bar
Encoding: 124 124 92
Width: 236
GlyphClass: 2
Flags: W
LayerCount: 2
Back
Fore
SplineSet
152 -109 m 1,0,-1
 84 -109 l 1,1,-1
 84 742 l 1,2,-1
 152 742 l 1,3,-1
 152 -109 l 1,0,-1
EndSplineSet
EndChar
StartChar: braceright
Encoding: 125 125 93
Width: 321
GlyphClass: 2
Flags: W
LayerCount: 2
Back
Fore
SplineSet
121 734 m 1,0,-1
 145 734 l 2,1,2
 268 734 268 734 268 612 c 0,3,4
 268 594 268 594 265 571 c 2,5,-1
 242 407 l 2,6,7
 240 393 240 393 240 385 c 0,8,9
 240 322 240 322 292 322 c 1,10,-1
 286 275 l 1,11,12
 224 275 224 275 211 179 c 2,13,-1
 189 26 l 2,14,15
 177 -54 177 -54 138 -95.5 c 128,-1,16
 99 -137 99 -137 23 -137 c 2,17,-1
 2 -137 l 1,18,-1
 8 -91 l 1,19,20
 62 -91 62 -91 81 -73.5 c 128,-1,21
 100 -56 100 -56 107 -2 c 2,22,-1
 129 168 l 2,23,24
 143 273 143 273 213 300 c 1,25,26
 163 319 163 319 163 386 c 0,27,28
 163 401 163 401 167 429 c 2,29,-1
 190 606 l 2,30,31
 192 626 192 626 192 631 c 0,32,33
 192 666 192 666 175 677 c 128,-1,34
 158 688 158 688 115 688 c 1,35,-1
 121 734 l 1,0,-1
EndSplineSet
EndChar
StartChar: asciitilde
Encoding: 126 126 94
Width: 559
GlyphClass: 2
Flags: W
LayerCount: 2
Back
Fore
SplineSet
515 297 m 1,0,1
 492 261 492 261 454.5 232.5 c 128,-1,2
 417 204 417 204 380 204 c 0,3,4
 342 204 342 204 276.5 237.5 c 128,-1,5
 211 271 211 271 175 271 c 0,6,7
 150 271 150 271 129 250.5 c 128,-1,8
 108 230 108 230 96 203 c 1,9,-1
 44 247 l 1,10,11
 62 287 62 287 98 315 c 128,-1,12
 134 343 134 343 175 343 c 0,13,14
 220 343 220 343 288.5 310 c 128,-1,15
 357 277 357 277 380 277 c 0,16,17
 406 277 406 277 428.5 296.5 c 128,-1,18
 451 316 451 316 466 343 c 1,19,-1
 515 297 l 1,0,1
EndSplineSet
EndChar
StartChar: exclamdown
Encoding: 161 161 95
Width: 245
GlyphClass: 2
Flags: W
LayerCount: 2
Back
Fore
SplineSet
21 -177 m 1,0,-1
 112 283 l 1,1,-1
 170 274 l 1,2,-1
 133 -193 l 2,3,4
 132 -211 132 -211 116 -223 c 128,-1,5
 100 -235 100 -235 79 -235 c 0,6,7
 56 -235 56 -235 38 -222 c 128,-1,8
 20 -209 20 -209 20 -187 c 2,9,-1
 21 -177 l 1,0,-1
164 370 m 0,10,11
 136 370 136 370 117 389.5 c 128,-1,12
 98 409 98 409 98 437 c 0,13,14
 98 464 98 464 117 483.5 c 128,-1,15
 136 503 136 503 163 503 c 0,16,17
 191 503 191 503 210.5 484 c 128,-1,18
 230 465 230 465 230 437 c 128,-1,19
 230 409 230 409 210.5 389.5 c 128,-1,20
 191 370 191 370 164 370 c 0,10,11
EndSplineSet
EndChar
StartChar: cent
Encoding: 162 162 96
Width: 421
GlyphClass: 2
Flags: W
LayerCount: 2
Back
Fore
SplineSet
430 454 m 1,0,-1
 380 397 l 1,1,2
 334 441 334 441 279 441 c 0,3,4
 217 441 217 441 176 383 c 128,-1,5
 135 325 135 325 126 254 c 0,6,7
 123 233 123 233 123 210 c 0,8,9
 123 150 123 150 152 102.5 c 128,-1,10
 181 55 181 55 234 55 c 0,11,12
 268 55 268 55 293.5 65 c 128,-1,13
 319 75 319 75 355 100 c 1,14,-1
 383 35 l 1,15,16
 336 8 336 8 304 -2.5 c 128,-1,17
 272 -13 272 -13 229 -13 c 1,18,-1
 209 -122 l 1,19,-1
 131 -122 l 1,20,-1
 167 -6 l 1,21,22
 105 12 105 12 70.5 67 c 128,-1,23
 36 122 36 122 36 197 c 0,24,25
 36 314 36 314 98.5 402.5 c 128,-1,26
 161 491 161 491 266 504 c 1,27,-1
 288 615 l 1,28,-1
 366 615 l 1,29,-1
 330 502 l 1,30,31
 390 490 390 490 430 454 c 1,0,-1
EndSplineSet
EndChar
StartChar: sterling
Encoding: 163 163 97
Width: 514
GlyphClass: 2
Flags: W
LayerCount: 2
Back
Fore
SplineSet
547 634 m 1,0,-1
 470 592 l 1,1,2
 446 663 446 663 385 663 c 0,3,4
 341 663 341 663 307.5 631 c 128,-1,5
 274 599 274 599 267 541 c 2,6,-1
 252 423 l 1,7,-1
 375 423 l 1,8,-1
 365 355 l 1,9,-1
 242 355 l 1,10,-1
 204 67 l 1,11,-1
 482 67 l 1,12,-1
 472 -2 l 1,13,-1
 16 -2 l 1,14,-1
 26 67 l 1,15,-1
 115 67 l 1,16,-1
 153 355 l 1,17,-1
 80 355 l 1,18,-1
 90 423 l 1,19,-1
 163 423 l 1,20,-1
 178 540 l 2,21,22
 190 634 190 634 250 683 c 128,-1,23
 310 732 310 732 393 732 c 0,24,25
 446 732 446 732 486.5 706 c 128,-1,26
 527 680 527 680 547 634 c 1,0,-1
EndSplineSet
EndChar
StartChar: yen
Encoding: 165 165 99
Width: 468
GlyphClass: 2
Flags: W
LayerCount: 2
Back
Fore
SplineSet
466 490 m 1,0,-1
 329 314 l 1,1,-1
 422 314 l 1,2,-1
 415 268 l 1,3,-1
 292 268 l 1,4,-1
 272 242 l 1,5,-1
 267 207 l 1,6,-1
 408 207 l 1,7,-1
 401 161 l 1,8,-1
 260 161 l 1,9,-1
 238 0 l 1,10,-1
 161 0 l 1,11,-1
 183 161 l 1,12,-1
 44 161 l 1,13,-1
 51 207 l 1,14,-1
 190 207 l 1,15,-1
 194 243 l 1,16,-1
 181 268 l 1,17,-1
 58 268 l 1,18,-1
 65 314 l 1,19,-1
 156 314 l 1,20,-1
 64 490 l 1,21,-1
 149 490 l 1,22,-1
 250 304 l 1,23,-1
 392 490 l 1,24,-1
 466 490 l 1,0,-1
EndSplineSet
EndChar
StartChar: section
Encoding: 167 167 101
Width: 454
GlyphClass: 2
Flags: W
LayerCount: 2
Back
Fore
SplineSet
460 758 m 1,0,-1
 435 692 l 1,1,2
 402 705 402 705 387 705 c 0,3,4
 303 705 303 705 303 597 c 0,5,6
 303 538 303 538 322 322.5 c 128,-1,7
 341 107 341 107 341 79 c 0,8,9
 341 41 341 41 331.5 6.5 c 128,-1,10
 322 -28 322 -28 292 -60.5 c 128,-1,11
 262 -93 262 -93 214 -101 c 1,12,13
 203 -169 203 -169 158 -201 c 128,-1,14
 113 -233 113 -233 56 -233 c 0,15,16
 15 -233 15 -233 -15 -218 c 1,17,-1
 9 -157 l 2,18,19
 10 -157 10 -157 20 -160.5 c 128,-1,20
 30 -164 30 -164 40.5 -166.5 c 128,-1,21
 51 -169 51 -169 56 -169 c 0,22,23
 140 -169 140 -169 140 -60 c 0,24,25
 140 -21 140 -21 121.5 194 c 128,-1,26
 103 409 103 409 103 458 c 0,27,28
 103 626 103 626 229 641 c 1,29,30
 238 704 238 704 282 738.5 c 128,-1,31
 326 773 326 773 387 773 c 0,32,33
 399 773 399 773 417.5 769.5 c 128,-1,34
 436 766 436 766 448 762 c 2,35,-1
 460 758 l 1,0,-1
262 73 m 0,36,37
 262 122 262 122 246 316 c 128,-1,38
 230 510 230 510 227 569 c 1,39,40
 180 549 180 549 180 465 c 0,41,42
 180 437 180 437 197 242.5 c 128,-1,43
 214 48 214 48 217 -29 c 1,44,45
 262 -7 262 -7 262 73 c 0,36,37
EndSplineSet
EndChar
StartChar: dieresis
Encoding: 168 168 102
Width: 278
GlyphClass: 2
Flags: W
LayerCount: 2
Back
Fore
SplineSet
278 624 m 0,0,1
 278 601 278 601 261 584 c 128,-1,2
 244 567 244 567 221 567 c 256,3,4
 198 567 198 567 181 584 c 128,-1,5
 164 601 164 601 164 624 c 128,-1,6
 164 647 164 647 181 664 c 128,-1,7
 198 681 198 681 221 681 c 0,8,9
 245 681 245 681 261.5 664.5 c 128,-1,10
 278 648 278 648 278 624 c 0,0,1
115 624 m 0,11,12
 115 601 115 601 98 584 c 128,-1,13
 81 567 81 567 58 567 c 256,14,15
 35 567 35 567 18 584 c 128,-1,16
 1 601 1 601 1 624 c 128,-1,17
 1 647 1 647 18 664 c 128,-1,18
 35 681 35 681 58 681 c 0,19,20
 82 681 82 681 98.5 664.5 c 128,-1,21
 115 648 115 648 115 624 c 0,11,12
EndSplineSet
EndChar
StartChar: ordfeminine
Encoding: 170 170 104
Width: 363
GlyphClass: 2
Flags: W
LayerCount: 2
Back
Fore
SplineSet
333 401 m 1,0,1
 303 386 303 386 285 386 c 0,2,3
 262 386 262 386 247 401.5 c 128,-1,4
 232 417 232 417 230 442 c 1,5,6
 194 385 194 385 134 385 c 0,7,8
 84 385 84 385 58 420 c 128,-1,9
 32 455 32 455 32 509 c 0,10,11
 32 586 32 586 81 653.5 c 128,-1,12
 130 721 130 721 203 721 c 0,13,14
 251 721 251 721 274 691 c 1,15,-1
 288 716 l 1,16,-1
 316 716 l 1,17,-1
 280 468 l 2,18,19
 279 464 279 464 279 455 c 0,20,21
 279 429 279 429 300 429 c 0,22,23
 313 429 313 429 326 434 c 1,24,-1
 333 401 l 1,0,1
272 331 m 1,25,-1
 264 277 l 1,26,-1
 55 277 l 1,27,-1
 64 331 l 1,28,-1
 272 331 l 1,25,-1
257 656 m 1,29,30
 235 681 235 681 205 681 c 0,31,32
 169 681 169 681 142 650 c 128,-1,33
 115 619 115 619 103.5 580.5 c 128,-1,34
 92 542 92 542 92 507 c 0,35,36
 92 475 92 475 104 450 c 128,-1,37
 116 425 116 425 144 425 c 0,38,39
 219 425 219 425 247 594 c 2,40,-1
 257 656 l 1,29,30
EndSplineSet
EndChar
StartChar: guillemotleft
Encoding: 171 171 105
Width: 454
GlyphClass: 2
Flags: W
LayerCount: 2
Back
Fore
SplineSet
422 482 m 1,0,-1
 283 331 l 1,1,-1
 380 181 l 1,2,-1
 320 172 l 1,3,-1
 193 332 l 1,4,-1
 360 493 l 1,5,-1
 422 482 l 1,0,-1
272 482 m 1,6,-1
 135 331 l 1,7,-1
 231 181 l 1,8,-1
 172 172 l 1,9,-1
 45 332 l 1,10,-1
 212 493 l 1,11,-1
 272 482 l 1,6,-1
EndSplineSet
EndChar
StartChar: uni00AD
Encoding: 173 173 107
Width: 636
GlyphClass: 2
Flags: W
LayerCount: 2
Back
Fore
SplineSet
564 216 m 1,0,-1
 72 216 l 1,1,-1
 72 277 l 1,2,-1
 564 277 l 1,3,-1
 564 216 l 1,0,-1
EndSplineSet
EndChar
StartChar: macron
Encoding: 175 175 109
Width: 276
GlyphClass: 2
Flags: W
LayerCount: 2
Back
Fore
SplineSet
282 598 m 1,0,-1
 -8 598 l 1,1,-1
 -8 657 l 1,2,-1
 282 657 l 1,3,-1
 282 598 l 1,0,-1
EndSplineSet
EndChar
StartChar: degree
Encoding: 176 176 110
Width: 342
GlyphClass: 2
Flags: W
LayerCount: 2
Back
Fore
SplineSet
322 593 m 0,0,1
 322 530 322 530 278 486.5 c 128,-1,2
 234 443 234 443 171 443 c 256,3,4
 108 443 108 443 64 486.5 c 128,-1,5
 20 530 20 530 20 593 c 0,6,7
 20 655 20 655 64 699 c 128,-1,8
 108 743 108 743 170 743 c 0,9,10
 233 743 233 743 277.5 699 c 128,-1,11
 322 655 322 655 322 593 c 0,0,1
259 593 m 0,12,13
 259 630 259 630 233 656.5 c 128,-1,14
 207 683 207 683 171 683 c 256,15,16
 135 683 135 683 109 656.5 c 128,-1,17
 83 630 83 630 83 593 c 0,18,19
 83 555 83 555 108.5 529 c 128,-1,20
 134 503 134 503 170 503 c 256,21,22
 206 503 206 503 232.5 529 c 128,-1,23
 259 555 259 555 259 593 c 0,12,13
EndSplineSet
EndChar
StartChar: plusminus
Encoding: 177 177 111
Width: 632
GlyphClass: 2
Flags: W
LayerCount: 2
Back
Fore
SplineSet
567 251 m 1,0,-1
 352 251 l 1,1,-1
 352 80 l 1,2,-1
 282 80 l 1,3,-1
 282 251 l 1,4,-1
 68 251 l 1,5,-1
 68 320 l 1,6,-1
 282 320 l 1,7,-1
 282 490 l 1,8,-1
 352 490 l 1,9,-1
 352 320 l 1,10,-1
 567 320 l 1,11,-1
 567 251 l 1,0,-1
567 0 m 1,12,-1
 68 0 l 1,13,-1
 68 68 l 1,14,-1
 567 68 l 1,15,-1
 567 0 l 1,12,-1
EndSplineSet
EndChar
StartChar: twosuperior
Encoding: 178 178 112
Width: 457
GlyphClass: 2
Flags: W
LayerCount: 2
Back
Fore
SplineSet
344 434 m 1,0,-1
 38 434 l 1,1,-1
 38 472 l 1,2,-1
 41 475 l 2,3,4
 60 489 60 489 84.5 508.5 c 128,-1,5
 109 528 109 528 154 568.5 c 128,-1,6
 199 609 199 609 234 647 c 128,-1,7
 269 685 269 685 295.5 729.5 c 128,-1,8
 322 774 322 774 322 807 c 0,9,10
 322 835 322 835 304.5 852.5 c 128,-1,11
 287 870 287 870 255 870 c 0,12,13
 227 870 227 870 195.5 857 c 128,-1,14
 164 844 164 844 146 830 c 2,15,-1
 129 817 l 1,16,-1
 104 864 l 1,17,18
 112 871 112 871 126.5 881.5 c 128,-1,19
 141 892 141 892 186.5 910 c 128,-1,20
 232 928 232 928 278 928 c 0,21,22
 342 928 342 928 371.5 897.5 c 128,-1,23
 401 867 401 867 401 822 c 0,24,25
 401 778 401 778 375 729 c 128,-1,26
 349 680 349 680 312 641 c 128,-1,27
 275 602 275 602 238 569.5 c 128,-1,28
 201 537 201 537 175 520 c 2,29,-1
 149 502 l 1,30,-1
 371 502 l 1,31,-1
 344 434 l 1,0,-1
EndSplineSet
EndChar
StartChar: threesuperior
Encoding: 179 179 113
Width: 457
GlyphClass: 2
Flags: W
LayerCount: 2
Back
Fore
SplineSet
46 423 m 1,0,-1
 43 474 l 1,1,2
 163 480 163 480 231.5 519.5 c 128,-1,3
 300 559 300 559 300 618 c 0,4,5
 300 679 300 679 201 679 c 0,6,7
 196 679 196 679 190 679 c 0,8,9
 185 679 185 679 181 678.5 c 128,-1,10
 177 678 177 678 173.5 677.5 c 128,-1,11
 170 677 170 677 168 677 c 2,12,-1
 166 677 l 1,13,-1
 166 724 l 1,14,15
 311 753 311 753 311 830 c 0,16,17
 311 870 311 870 250 870 c 0,18,19
 222 870 222 870 186 855 c 128,-1,20
 150 840 150 840 124 820 c 1,21,-1
 99 866 l 1,22,23
 135 893 135 893 184.5 910.5 c 128,-1,24
 234 928 234 928 276 928 c 0,25,26
 322 928 322 928 354 910 c 128,-1,27
 386 892 386 892 386 852 c 0,28,29
 386 807 386 807 355 776 c 128,-1,30
 324 745 324 745 281 728 c 1,31,32
 323 723 323 723 350 697 c 128,-1,33
 377 671 377 671 377 630 c 0,34,35
 377 599 377 599 362 568 c 128,-1,36
 347 537 347 537 313 504 c 128,-1,37
 279 471 279 471 210 449 c 128,-1,38
 141 427 141 427 46 423 c 1,0,-1
EndSplineSet
EndChar
StartChar: acute
Encoding: 180 180 114
Width: 235
GlyphClass: 2
Flags: W
LayerCount: 2
Back
Fore
SplineSet
274 724 m 1,0,-1
 119 577 l 1,1,-1
 45 577 l 1,2,-1
 145 724 l 1,3,-1
 274 724 l 1,0,-1
EndSplineSet
EndChar
StartChar: mu
Encoding: 181 181 115
AltUni2: 0003bc.ffffffff.0
Width: 584
GlyphClass: 2
Flags: W
LayerCount: 2
Back
Fore
SplineSet
511 490 m 1,0,-1
 455 70 l 2,1,2
 455 59 455 59 466 59 c 0,3,4
 475 59 475 59 487.5 62 c 128,-1,5
 500 65 500 65 508 68 c 2,6,-1
 516 71 l 1,7,-1
 526 20 l 1,8,9
 466 -12 466 -12 426 -12 c 0,10,11
 401 -12 401 -12 388.5 6 c 128,-1,12
 376 24 376 24 376 52 c 2,13,-1
 376 58 l 1,14,15
 348 33 348 33 304.5 10 c 128,-1,16
 261 -13 261 -13 222 -13 c 0,17,18
 191 -13 191 -13 161 1 c 1,19,-1
 135 -186 l 1,20,-1
 53 -186 l 1,21,-1
 136 433 l 1,22,-1
 132 490 l 1,23,-1
 224 490 l 1,24,-1
 183 189 l 2,25,26
 179 157 179 157 179 141 c 0,27,28
 179 61 179 61 244 61 c 0,29,30
 283 61 283 61 323.5 85 c 128,-1,31
 364 109 364 109 382 127 c 1,32,-1
 423 433 l 1,33,-1
 419 490 l 1,34,-1
 511 490 l 1,0,-1
EndSplineSet
EndChar
StartChar: paragraph
Encoding: 182 182 116
Width: 546
GlyphClass: 2
Flags: W
LayerCount: 2
Back
Fore
SplineSet
523 764 m 1,0,-1
 515 710 l 1,1,-1
 459 710 l 1,2,-1
 351 -63 l 2,3,4
 345 -108 345 -108 308.5 -141 c 128,-1,5
 272 -174 272 -174 227 -174 c 0,6,7
 222 -174 222 -174 208 -172 c 1,8,9
 168 -231 168 -231 101 -231 c 0,10,11
 60 -231 60 -231 32.5 -204 c 128,-1,12
 5 -177 5 -177 5 -136 c 0,13,14
 5 -85 5 -85 43.5 -47 c 128,-1,15
 82 -9 82 -9 133 -9 c 1,16,-1
 125 -63 l 1,17,18
 99 -63 99 -63 79 -82.5 c 128,-1,19
 59 -102 59 -102 59 -128 c 0,20,21
 59 -149 59 -149 73.5 -163 c 128,-1,22
 88 -177 88 -177 109 -177 c 0,23,24
 133 -177 133 -177 151.5 -160 c 128,-1,25
 170 -143 170 -143 173 -120 c 2,26,-1
 242 378 l 1,27,28
 171 378 171 378 124.5 422.5 c 128,-1,29
 78 467 78 467 78 538 c 0,30,31
 78 644 78 644 150.5 704 c 128,-1,32
 223 764 223 764 331 764 c 2,33,-1
 523 764 l 1,0,-1
405 710 m 1,34,-1
 344 710 l 1,35,-1
 228 -120 l 1,36,-1
 232 -120 l 2,37,38
 256 -120 256 -120 275 -103 c 128,-1,39
 294 -86 294 -86 297 -63 c 2,40,-1
 405 710 l 1,34,-1
EndSplineSet
EndChar
StartChar: periodcentered
Encoding: 183 183 117
Width: 285
GlyphClass: 2
Flags: W
LayerCount: 2
Back
Fore
SplineSet
148 189 m 0,0,1
 120 189 120 189 101 208.5 c 128,-1,2
 82 228 82 228 82 256 c 0,3,4
 82 283 82 283 101 302.5 c 128,-1,5
 120 322 120 322 147 322 c 0,6,7
 175 322 175 322 194.5 303 c 128,-1,8
 214 284 214 284 214 256 c 128,-1,9
 214 228 214 228 194.5 208.5 c 128,-1,10
 175 189 175 189 148 189 c 0,0,1
EndSplineSet
EndChar
StartChar: cedilla
Encoding: 184 184 118
Width: 229
GlyphClass: 2
Flags: W
LayerCount: 2
Back
Fore
SplineSet
209 -117 m 0,0,1
 209 -167 209 -167 154 -194 c 0,2,3
 125 -209 125 -209 72 -218 c 1,4,-1
 65 -186 l 1,5,6
 74 -184 74 -184 87 -180 c 128,-1,7
 100 -176 100 -176 118.5 -159 c 128,-1,8
 137 -142 137 -142 137 -119 c 0,9,10
 137 -87 137 -87 90 -71 c 1,11,-1
 136 8 l 1,12,-1
 181 8 l 1,13,-1
 151 -46 l 1,14,15
 209 -64 209 -64 209 -117 c 0,0,1
EndSplineSet
EndChar
StartChar: onesuperior
Encoding: 185 185 119
Width: 457
GlyphClass: 2
Flags: W
LayerCount: 2
Back
Fore
SplineSet
353 434 m 1,0,-1
 64 434 l 1,1,-1
 72 493 l 1,2,-1
 190 493 l 1,3,-1
 236 838 l 1,4,-1
 116 803 l 1,5,6
 115 812 115 812 111 829.5 c 128,-1,7
 107 847 107 847 106 852 c 1,8,9
 186 879 186 879 276 918 c 1,10,-1
 323 918 l 1,11,-1
 266 493 l 1,12,-1
 361 493 l 1,13,-1
 353 434 l 1,0,-1
EndSplineSet
EndChar
StartChar: ordmasculine
Encoding: 186 186 120
Width: 355
GlyphClass: 2
Flags: W
LayerCount: 2
Back
Fore
SplineSet
322 582 m 0,0,1
 322 505 322 505 276.5 444 c 128,-1,2
 231 383 231 383 155 383 c 0,3,4
 96 383 96 383 64.5 422.5 c 128,-1,5
 33 462 33 462 33 522 c 0,6,7
 33 598 33 598 79.5 660 c 128,-1,8
 126 722 126 722 200 722 c 0,9,10
 259 722 259 722 290.5 682 c 128,-1,11
 322 642 322 642 322 582 c 0,0,1
254 331 m 1,12,-1
 245 277 l 1,13,-1
 37 277 l 1,14,-1
 45 331 l 1,15,-1
 254 331 l 1,12,-1
261 579 m 0,16,17
 261 618 261 618 245.5 646 c 128,-1,18
 230 674 230 674 194 674 c 0,19,20
 147 674 147 674 120.5 627 c 128,-1,21
 94 580 94 580 94 529 c 0,22,23
 94 490 94 490 110 460.5 c 128,-1,24
 126 431 126 431 161 431 c 0,25,26
 209 431 209 431 235 478.5 c 128,-1,27
 261 526 261 526 261 579 c 0,16,17
EndSplineSet
EndChar
StartChar: guillemotright
Encoding: 187 187 121
Width: 454
GlyphClass: 2
Flags: W
LayerCount: 2
Back
Fore
SplineSet
422 333 m 1,0,-1
 254 172 l 1,1,-1
 194 183 l 1,2,-1
 332 334 l 1,3,-1
 235 485 l 1,4,-1
 295 493 l 1,5,-1
 422 333 l 1,0,-1
274 333 m 1,6,-1
 106 172 l 1,7,-1
 45 183 l 1,8,-1
 184 334 l 1,9,-1
 86 485 l 1,10,-1
 147 493 l 1,11,-1
 274 333 l 1,6,-1
EndSplineSet
EndChar
StartChar: onequarter
Encoding: 188 188 122
Width: 923
GlyphClass: 2
Flags: W
LayerCount: 2
Back
Fore
SplineSet
320 -22 m 1,0,-1
 262 -22 l 1,1,2
 614 665 614 665 658 753 c 1,3,-1
 718 753 l 1,4,5
 673 665 673 665 592.5 508.5 c 128,-1,6
 512 352 512 352 445.5 222 c 128,-1,7
 379 92 379 92 320 -22 c 1,0,-1
332 248 m 1,8,-1
 43 248 l 1,9,-1
 51 307 l 1,10,-1
 168 307 l 1,11,-1
 215 652 l 1,12,-1
 95 617 l 1,13,-1
 85 666 l 1,14,15
 179 698 179 698 254 732 c 1,16,-1
 301 732 l 1,17,-1
 244 307 l 1,18,-1
 339 307 l 1,19,-1
 332 248 l 1,8,-1
786 0 m 1,20,-1
 710 0 l 1,21,-1
 725 110 l 1,22,-1
 512 110 l 1,23,-1
 512 150 l 1,24,25
 563 213 563 213 654.5 329.5 c 128,-1,26
 746 446 746 446 775 483 c 1,27,-1
 851 483 l 1,28,-1
 809 169 l 1,29,-1
 880 169 l 1,30,-1
 856 110 l 1,31,-1
 801 110 l 1,32,-1
 786 0 l 1,20,-1
733 169 m 1,33,-1
 749 289 l 1,34,-1
 766 398 l 1,35,36
 751 374 751 374 728 341.5 c 128,-1,37
 705 309 705 309 689.5 288.5 c 128,-1,38
 674 268 674 268 639.5 224.5 c 128,-1,39
 605 181 605 181 596 169 c 1,40,-1
 733 169 l 1,33,-1
EndSplineSet
EndChar
StartChar: onehalf
Encoding: 189 189 123
Width: 979
GlyphClass: 2
Flags: W
LayerCount: 2
Back
Fore
SplineSet
331 248 m 1,0,-1
 43 248 l 1,1,-1
 50 307 l 1,2,-1
 168 307 l 1,3,-1
 214 652 l 1,4,-1
 95 617 l 1,5,-1
 84 666 l 1,6,7
 170 695 170 695 253 732 c 1,8,-1
 301 732 l 1,9,-1
 244 307 l 1,10,-1
 339 307 l 1,11,-1
 331 248 l 1,0,-1
320 -22 m 1,12,-1
 261 -22 l 1,13,14
 613 665 613 665 657 753 c 1,15,-1
 717 753 l 1,16,17
 641 605 641 605 502 333.5 c 128,-1,18
 363 62 363 62 320 -22 c 1,12,-1
876 0 m 1,19,-1
 569 0 l 1,20,-1
 569 38 l 2,21,22
 571 39 571 39 591 54 c 0,23,24
 627 82 627 82 665.5 116.5 c 128,-1,25
 704 151 704 151 749 197 c 128,-1,26
 794 243 794 243 823 289.5 c 128,-1,27
 852 336 852 336 852 370 c 0,28,29
 852 398 852 398 834.5 414.5 c 128,-1,30
 817 431 817 431 786 431 c 0,31,32
 760 431 760 431 731 420 c 128,-1,33
 702 409 702 409 686.5 399 c 128,-1,34
 671 389 671 389 661 381 c 1,35,-1
 636 429 l 1,36,37
 718 494 718 494 812 494 c 0,38,39
 875 494 875 494 905.5 464 c 128,-1,40
 936 434 936 434 936 387 c 0,41,42
 936 338 936 338 904.5 284 c 128,-1,43
 873 230 873 230 824.5 184.5 c 128,-1,44
 776 139 776 139 745 114 c 128,-1,45
 714 89 714 89 689 72 c 1,46,-1
 903 72 l 1,47,-1
 876 0 l 1,19,-1
EndSplineSet
EndChar
StartChar: threequarters
Encoding: 190 190 124
Width: 920
GlyphClass: 2
Flags: W
LayerCount: 2
Back
Fore
SplineSet
46 236 m 1,0,-1
 43 287 l 1,1,2
 163 293 163 293 231 332 c 128,-1,3
 299 371 299 371 299 431 c 0,4,5
 299 492 299 492 200 492 c 0,6,7
 195 492 195 492 190 492 c 256,8,9
 185 492 185 492 181 491.5 c 128,-1,10
 177 491 177 491 173.5 490.5 c 128,-1,11
 170 490 170 490 168 490 c 2,12,-1
 166 490 l 1,13,-1
 166 537 l 1,14,15
 308 566 308 566 308 643 c 0,16,17
 308 683 308 683 250 683 c 0,18,19
 221 683 221 683 185.5 668 c 128,-1,20
 150 653 150 653 124 633 c 1,21,22
 109 659 109 659 100 679 c 1,23,24
 136 706 136 706 185 723.5 c 128,-1,25
 234 741 234 741 276 741 c 0,26,27
 322 741 322 741 354.5 722.5 c 128,-1,28
 387 704 387 704 387 663 c 0,29,30
 387 619 387 619 355 588.5 c 128,-1,31
 323 558 323 558 279 541 c 1,32,33
 322 535 322 535 349.5 510 c 128,-1,34
 377 485 377 485 377 444 c 0,35,36
 377 420 377 420 369 395.5 c 128,-1,37
 361 371 361 371 338 343 c 128,-1,38
 315 315 315 315 280 293 c 128,-1,39
 245 271 245 271 184.5 255 c 128,-1,40
 124 239 124 239 46 236 c 1,0,-1
783 0 m 1,41,-1
 707 0 l 1,42,-1
 722 110 l 1,43,-1
 509 110 l 1,44,-1
 509 150 l 1,45,-1
 771 483 l 1,46,-1
 848 483 l 1,47,-1
 806 169 l 1,48,-1
 877 169 l 1,49,50
 862 135 862 135 853 110 c 1,51,-1
 798 110 l 1,52,-1
 783 0 l 1,41,-1
730 169 m 1,53,-1
 746 289 l 2,54,55
 748 302 748 302 763 398 c 1,56,57
 723 334 723 334 592 169 c 1,58,-1
 730 169 l 1,53,-1
317 -22 m 1,59,-1
 258 -22 l 1,60,-1
 654 753 l 1,61,-1
 713 753 l 1,62,-1
 317 -22 l 1,59,-1
EndSplineSet
EndChar
StartChar: questiondown
Encoding: 191 191 125
Width: 382
GlyphClass: 2
Flags: W
LayerCount: 2
Back
Fore
SplineSet
363 249 m 0,0,1
 363 199 363 199 337.5 167 c 128,-1,2
 312 135 312 135 275.5 120 c 128,-1,3
 239 105 239 105 202.5 92 c 128,-1,4
 166 79 166 79 140.5 55.5 c 128,-1,5
 115 32 115 32 115 -7 c 0,6,7
 115 -36 115 -36 138 -53 c 128,-1,8
 161 -70 161 -70 191 -70 c 0,9,10
 241 -70 241 -70 267 -55 c 1,11,-1
 284 -122 l 1,12,13
 246 -135 246 -135 194 -135 c 0,14,15
 123 -135 123 -135 79 -97 c 128,-1,16
 35 -59 35 -59 35 12 c 0,17,18
 35 58 35 58 53.5 90.5 c 128,-1,19
 72 123 72 123 100 138.5 c 128,-1,20
 128 154 128 154 160 167 c 128,-1,21
 192 180 192 180 220 188 c 128,-1,22
 248 196 248 196 266.5 212.5 c 128,-1,23
 285 229 285 229 285 253 c 0,24,25
 285 291 285 291 247.5 307 c 128,-1,26
 210 323 210 323 164 324 c 1,27,-1
 183 391 l 1,28,29
 259 384 259 384 311 351 c 128,-1,30
 363 318 363 318 363 249 c 0,0,1
319 475 m 0,31,32
 291 475 291 475 272 494.5 c 128,-1,33
 253 514 253 514 253 542 c 0,34,35
 253 569 253 569 272 588.5 c 128,-1,36
 291 608 291 608 318 608 c 0,37,38
 346 608 346 608 365.5 589 c 128,-1,39
 385 570 385 570 385 542 c 128,-1,40
 385 514 385 514 365.5 494.5 c 128,-1,41
 346 475 346 475 319 475 c 0,31,32
EndSplineSet
EndChar
StartChar: AE
Encoding: 198 198 132
Width: 820
GlyphClass: 2
Flags: W
LayerCount: 2
Back
Fore
SplineSet
864 724 m 1,0,-1
 854 655 l 1,1,-1
 561 655 l 1,2,-1
 529 406 l 1,3,-1
 770 406 l 1,4,-1
 760 338 l 1,5,-1
 518 338 l 1,6,-1
 483 69 l 1,7,-1
 778 69 l 1,8,-1
 768 0 l 1,9,-1
 384 0 l 1,10,-1
 417 247 l 1,11,-1
 218 247 l 1,12,-1
 57 0 l 1,13,-1
 -26 0 l 1,14,-1
 400 660 l 1,15,-1
 395 724 l 1,16,-1
 864 724 l 1,0,-1
469 637 m 1,17,-1
 264 318 l 1,18,-1
 427 318 l 1,19,-1
 469 637 l 1,17,-1
EndSplineSet
EndChar
StartChar: Eth
Encoding: 208 208 142
Width: 679
GlyphClass: 2
Flags: W
LayerCount: 2
Back
Fore
SplineSet
12 338 m 1,0,-1
 22 402 l 1,1,-1
 99 402 l 1,2,-1
 134 659 l 1,3,-1
 134 724 l 1,4,-1
 378 724 l 2,5,6
 508 724 508 724 573.5 643.5 c 128,-1,7
 639 563 639 563 639 434 c 0,8,9
 639 351 639 351 616.5 275 c 128,-1,10
 594 199 594 199 551 136.5 c 128,-1,11
 508 74 508 74 436.5 37 c 128,-1,12
 365 0 365 0 275 0 c 2,13,-1
 45 0 l 1,14,-1
 90 338 l 1,15,-1
 12 338 l 1,0,-1
545 430 m 0,16,17
 545 527 545 527 503.5 591 c 128,-1,18
 462 655 462 655 369 655 c 2,19,-1
 223 655 l 1,20,-1
 189 402 l 1,21,-1
 338 402 l 1,22,-1
 328 338 l 1,23,-1
 181 338 l 1,24,-1
 145 69 l 1,25,-1
 281 69 l 2,26,27
 348 69 348 69 400.5 103.5 c 128,-1,28
 453 138 453 138 483.5 193 c 128,-1,29
 514 248 514 248 529.5 309 c 128,-1,30
 545 370 545 370 545 430 c 0,16,17
EndSplineSet
EndChar
StartChar: Oslash
Encoding: 216 216 150
Width: 737
GlyphClass: 2
Flags: W
LayerCount: 2
Back
Fore
SplineSet
681 436 m 0,0,1
 681 354 681 354 657.5 276 c 128,-1,2
 634 198 634 198 590 132.5 c 128,-1,3
 546 67 546 67 474.5 27 c 128,-1,4
 403 -13 403 -13 316 -13 c 0,5,6
 219 -13 219 -13 156 39 c 1,7,-1
 84 -56 l 1,8,-1
 38 -23 l 1,9,-1
 117 79 l 1,10,11
 57 156 57 156 57 282 c 0,12,13
 57 346 57 346 70.5 409.5 c 128,-1,14
 84 473 84 473 113.5 531.5 c 128,-1,15
 143 590 143 590 184.5 634.5 c 128,-1,16
 226 679 226 679 286 706 c 128,-1,17
 346 733 346 733 416 733 c 0,18,19
 509 733 509 733 575 687 c 1,20,-1
 632 762 l 1,21,-1
 680 731 l 1,22,-1
 616 647 l 1,23,24
 681 569 681 569 681 436 c 0,0,1
524 621 m 1,25,26
 480 664 480 664 410 664 c 0,27,28
 343 664 343 664 291 627.5 c 128,-1,29
 239 591 239 591 210 532.5 c 128,-1,30
 181 474 181 474 166.5 410.5 c 128,-1,31
 152 347 152 347 152 284 c 0,32,33
 152 210 152 210 174 158 c 1,34,-1
 524 621 l 1,25,26
587 433 m 0,35,36
 587 513 587 513 560 571 c 1,37,-1
 206 106 l 1,38,39
 253 55 253 55 329 55 c 0,40,41
 396 55 396 55 448 91 c 128,-1,42
 500 127 500 127 529 185 c 128,-1,43
 558 243 558 243 572.5 306.5 c 128,-1,44
 587 370 587 370 587 433 c 0,35,36
EndSplineSet
EndChar
StartChar: Thorn
Encoding: 222 222 156
Width: 539
GlyphClass: 2
Flags: W
LayerCount: 2
Back
Fore
SplineSet
236 724 m 1,0,-1
 221 610 l 1,1,-1
 317 610 l 2,2,3
 413 610 413 610 471 567 c 128,-1,4
 529 524 529 524 529 429 c 0,5,6
 529 313 529 313 455.5 242.5 c 128,-1,7
 382 172 382 172 264 172 c 2,8,-1
 160 172 l 1,9,-1
 137 0 l 1,10,-1
 46 0 l 1,11,-1
 135 659 l 1,12,-1
 135 724 l 1,13,-1
 236 724 l 1,0,-1
435 418 m 0,14,15
 435 478 435 478 402 509.5 c 128,-1,16
 369 541 369 541 309 541 c 2,17,-1
 210 541 l 1,18,-1
 170 239 l 1,19,-1
 270 239 l 2,20,21
 345 239 345 239 390 290.5 c 128,-1,22
 435 342 435 342 435 418 c 0,14,15
EndSplineSet
EndChar
StartChar: germandbls
Encoding: 223 223 157
Width: 541
GlyphClass: 2
Flags: W
LayerCount: 2
Back
Fore
SplineSet
489 181 m 0,0,1
 489 89 489 89 430.5 38 c 128,-1,2
 372 -13 372 -13 280 -13 c 0,3,4
 225 -13 225 -13 182 8 c 1,5,-1
 206 66 l 1,6,7
 245 52 245 52 281 52 c 0,8,9
 334 52 334 52 368 86.5 c 128,-1,10
 402 121 402 121 402 175 c 0,11,12
 402 205 402 205 385.5 231 c 128,-1,13
 369 257 369 257 345.5 275.5 c 128,-1,14
 322 294 322 294 298.5 311.5 c 128,-1,15
 275 329 275 329 258.5 350 c 128,-1,16
 242 371 242 371 242 393 c 0,17,18
 242 423 242 423 294 456 c 0,19,20
 307 464 307 464 323 475 c 0,21,22
 400 526 400 526 400 596 c 0,23,24
 400 628 400 628 383 647 c 128,-1,25
 366 666 366 666 335 666 c 0,26,27
 273 666 273 666 240 614 c 128,-1,28
 207 562 207 562 197 488 c 2,29,-1
 122 -61 l 2,30,31
 99 -230 99 -230 -43 -230 c 0,32,33
 -105 -230 -105 -230 -155 -198 c 1,34,-1
 -115 -141 l 1,35,36
 -93 -157 -93 -157 -81 -161.5 c 128,-1,37
 -69 -166 -69 -166 -45 -166 c 0,38,39
 29 -166 29 -166 44 -52 c 2,40,-1
 109 427 l 1,41,-1
 37 427 l 1,42,-1
 45 490 l 1,43,-1
 117 490 l 1,44,45
 132 596 132 596 186.5 664.5 c 128,-1,46
 241 733 241 733 342 733 c 0,47,48
 404 733 404 733 444 697.5 c 128,-1,49
 484 662 484 662 484 600 c 0,50,51
 484 499 484 499 398 447 c 0,52,53
 397 447 397 447 340 416 c 0,54,55
 316 405 316 405 316 397 c 0,56,57
 316 387 316 387 341 371 c 0,58,59
 347 367 347 367 367.5 354 c 128,-1,60
 388 341 388 341 400 333 c 0,61,62
 489 270 489 270 489 181 c 0,0,1
EndSplineSet
EndChar
StartChar: ae
Encoding: 230 230 164
Width: 714
GlyphClass: 2
Flags: W
LayerCount: 2
Back
Fore
SplineSet
677 399 m 0,0,1
 677 308 677 308 580 249 c 0,2,3
 507 205 507 205 372 203 c 1,4,-1
 372 198 l 2,5,6
 372 138 372 138 402 98 c 128,-1,7
 432 58 432 58 489 58 c 0,8,9
 564 58 564 58 628 103 c 1,10,-1
 657 44 l 1,11,12
 576 -12 576 -12 484 -12 c 0,13,14
 387 -12 387 -12 332 54 c 1,15,16
 275 -13 275 -13 193 -13 c 0,17,18
 116 -13 116 -13 76 43 c 128,-1,19
 36 99 36 99 36 185 c 0,20,21
 36 254 36 254 67 327 c 128,-1,22
 98 400 98 400 159 452.5 c 128,-1,23
 220 505 220 505 294 505 c 0,24,25
 367 505 367 505 405 454 c 1,26,27
 467 505 467 505 550 505 c 0,28,29
 605 505 605 505 641 479 c 128,-1,30
 677 453 677 453 677 399 c 0,0,1
593 387 m 2,31,-1
 593 391 l 2,32,33
 591 443 591 443 537 443 c 0,34,35
 479 443 479 443 430.5 383 c 128,-1,36
 382 323 382 323 377 261 c 1,37,38
 405 261 405 261 437.5 267 c 128,-1,39
 470 273 470 273 507 285.5 c 128,-1,40
 544 298 544 298 568.5 324.5 c 128,-1,41
 593 351 593 351 593 387 c 2,31,-1
365 416 m 1,42,43
 332 443 332 443 290 443 c 0,44,45
 252 443 252 443 220 415.5 c 128,-1,46
 188 388 188 388 169 346.5 c 128,-1,47
 150 305 150 305 139.5 260.5 c 128,-1,48
 129 216 129 216 129 178 c 0,49,50
 129 129 129 129 147 89.5 c 128,-1,51
 165 50 165 50 206 50 c 0,52,53
 263 50 263 50 303 102 c 1,54,55
 286 144 286 144 286 193 c 0,56,57
 286 323 286 323 365 416 c 1,42,43
EndSplineSet
EndChar
StartChar: eth
Encoding: 240 240 174
Width: 508
GlyphClass: 2
Flags: W
LayerCount: 2
Back
Fore
SplineSet
444 729 m 1,0,-1
 341 673 l 1,1,2
 471 475 471 475 471 302 c 0,3,4
 471 222 471 222 441.5 151.5 c 128,-1,5
 412 81 412 81 353.5 35.5 c 128,-1,6
 295 -10 295 -10 220 -10 c 0,7,8
 133 -10 133 -10 85 49 c 128,-1,9
 37 108 37 108 37 199 c 0,10,11
 37 320 37 320 108 412.5 c 128,-1,12
 179 505 179 505 288 505 c 0,13,14
 320 505 320 505 351 492 c 1,15,16
 321 573 321 573 279 640 c 1,17,-1
 171 582 l 1,18,-1
 146 622 l 1,19,-1
 254 680 l 1,20,21
 236 706 236 706 207 739 c 1,22,-1
 264 772 l 1,23,24
 302 728 302 728 313 712 c 1,25,-1
 423 771 l 1,26,-1
 444 729 l 1,0,-1
383 247 m 0,27,28
 386 268 386 268 386 293 c 0,29,30
 386 357 386 357 361 401 c 128,-1,31
 336 445 336 445 280 445 c 0,32,33
 236 445 236 445 203 417 c 128,-1,34
 170 389 170 389 153.5 346.5 c 128,-1,35
 137 304 137 304 129 266.5 c 128,-1,36
 121 229 121 229 121 200 c 0,37,38
 121 137 121 137 146 93.5 c 128,-1,39
 171 50 171 50 227 50 c 0,40,41
 274 50 274 50 309.5 84 c 128,-1,42
 345 118 345 118 361 159.5 c 128,-1,43
 377 201 377 201 383 247 c 0,27,28
EndSplineSet
EndChar
StartChar: divide
Encoding: 247 247 181
Width: 630
GlyphClass: 2
Flags: W
LayerCount: 2
Back
Fore
SplineSet
377 400 m 0,0,1
 377 375 377 375 359 357.5 c 128,-1,2
 341 340 341 340 316 340 c 256,3,4
 291 340 291 340 273 357.5 c 128,-1,5
 255 375 255 375 255 400 c 0,6,7
 255 426 255 426 272.5 443.5 c 128,-1,8
 290 461 290 461 316 461 c 256,9,10
 342 461 342 461 359.5 443.5 c 128,-1,11
 377 426 377 426 377 400 c 0,0,1
567 210 m 1,12,-1
 68 210 l 1,13,-1
 68 276 l 1,14,-1
 567 276 l 1,15,-1
 567 210 l 1,12,-1
316 147 m 0,16,17
 342 147 342 147 359.5 129.5 c 128,-1,18
 377 112 377 112 377 87 c 128,-1,19
 377 62 377 62 359.5 44.5 c 128,-1,20
 342 27 342 27 316 27 c 256,21,22
 290 27 290 27 272.5 44.5 c 128,-1,23
 255 62 255 62 255 87 c 128,-1,24
 255 112 255 112 273 129.5 c 128,-1,25
 291 147 291 147 316 147 c 0,16,17
EndSplineSet
EndChar
StartChar: oslash
Encoding: 248 248 182
Width: 555
GlyphClass: 2
Flags: W
LayerCount: 2
Back
Fore
SplineSet
502 522 m 1,0,-1
 443 443 l 1,1,2
 488 387 488 387 488 299 c 0,3,4
 488 225 488 225 460 155 c 128,-1,5
 432 85 432 85 372.5 36.5 c 128,-1,6
 313 -12 313 -12 235 -12 c 0,7,8
 173 -12 173 -12 133 18 c 1,9,-1
 68 -67 l 1,10,-1
 26 -37 l 1,11,-1
 96 54 l 1,12,13
 53 109 53 109 53 196 c 0,14,15
 53 250 53 250 70.5 304.5 c 128,-1,16
 88 359 88 359 119 404 c 128,-1,17
 150 449 150 449 199 477.5 c 128,-1,18
 248 506 248 506 306 506 c 256,19,20
 364 506 364 506 405 480 c 1,21,-1
 457 550 l 1,22,-1
 502 522 l 1,0,-1
362 420 m 1,23,24
 336 443 336 443 299 443 c 0,25,26
 247 443 247 443 208 402.5 c 128,-1,27
 169 362 169 362 152.5 309 c 128,-1,28
 136 256 136 256 136 204 c 0,29,30
 136 153 136 153 148 128 c 1,31,-1
 362 420 l 1,23,24
405 296 m 0,32,33
 405 339 405 339 394 372 c 1,34,-1
 176 79 l 1,35,36
 202 51 202 51 241 51 c 0,37,38
 295 51 295 51 334 93 c 128,-1,39
 373 135 373 135 389 189 c 128,-1,40
 405 243 405 243 405 296 c 0,32,33
EndSplineSet
EndChar
StartChar: thorn
Encoding: 254 254 188
Width: 518
GlyphClass: 2
Flags: W
LayerCount: 2
Back
Fore
SplineSet
224 764 m 1,0,-1
 179 432 l 1,1,2
 233 503 233 503 321 503 c 0,3,4
 398 503 398 503 438.5 447.5 c 128,-1,5
 479 392 479 392 479 308 c 0,6,7
 479 231 479 231 448 158 c 128,-1,8
 417 85 417 85 357 36 c 128,-1,9
 297 -13 297 -13 223 -13 c 0,10,11
 196 -13 196 -13 167.5 -2.5 c 128,-1,12
 139 8 139 8 124 22 c 1,13,-1
 99 -165 l 1,14,-1
 99 -223 l 1,15,-1
 10 -223 l 1,16,-1
 136 707 l 1,17,-1
 136 764 l 1,18,-1
 224 764 l 1,0,-1
386 314 m 0,19,20
 386 365 386 365 367 403 c 128,-1,21
 348 441 348 441 301 441 c 0,22,23
 181 441 181 441 145 178 c 0,24,25
 142 160 142 160 139 128.5 c 128,-1,26
 136 97 136 97 134 88 c 1,27,28
 149 71 149 71 175 60 c 128,-1,29
 201 49 201 49 226 49 c 0,30,31
 300 49 300 49 343 134 c 128,-1,32
 386 219 386 219 386 314 c 0,19,20
EndSplineSet
EndChar
StartChar: dotlessi
Encoding: 305 305 190
Width: 227
GlyphClass: 2
Flags: W
LayerCount: 2
Back
Fore
SplineSet
186 490 m 1,0,-1
 128 58 l 1,1,-1
 128 0 l 1,2,-1
 40 0 l 1,3,-1
 98 433 l 1,4,-1
 98 490 l 1,5,-1
 186 490 l 1,0,-1
EndSplineSet
EndChar
StartChar: Lslash
Encoding: 321 321 191
Width: 471
GlyphClass: 2
Flags: W
LayerCount: 2
Back
Fore
SplineSet
388 417 m 1,0,-1
 180 322 l 1,1,-1
 146 69 l 1,2,-1
 435 69 l 1,3,-1
 425 0 l 1,4,-1
 45 0 l 1,5,-1
 82 278 l 1,6,-1
 4 242 l 1,7,-1
 14 310 l 1,8,-1
 91 345 l 1,9,-1
 134 659 l 1,10,-1
 134 724 l 1,11,-1
 234 724 l 1,12,-1
 189 390 l 1,13,-1
 398 485 l 1,14,-1
 388 417 l 1,0,-1
EndSplineSet
EndChar
StartChar: lslash
Encoding: 322 322 192
Width: 227
GlyphClass: 2
Flags: W
LayerCount: 2
Back
Fore
SplineSet
241 371 m 1,0,-1
 165 337 l 1,1,-1
 128 58 l 1,2,-1
 128 0 l 1,3,-1
 39 0 l 1,4,-1
 79 298 l 1,5,-1
 2 264 l 1,6,-1
 12 332 l 1,7,-1
 88 366 l 1,8,-1
 135 707 l 1,9,-1
 135 764 l 1,10,-1
 223 764 l 1,11,-1
 174 405 l 1,12,-1
 251 439 l 1,13,-1
 241 371 l 1,0,-1
EndSplineSet
EndChar
StartChar: OE
Encoding: 338 338 193
Width: 978
GlyphClass: 2
Flags: W
LayerCount: 2
Back
Fore
SplineSet
616 724 m 1,0,-1
 1019 724 l 1,1,-1
 1009 655 l 1,2,-1
 696 655 l 1,3,-1
 664 405 l 1,4,-1
 906 405 l 1,5,-1
 896 337 l 1,6,-1
 654 337 l 1,7,-1
 618 69 l 1,8,-1
 931 69 l 1,9,-1
 922 0 l 1,10,-1
 520 0 l 1,11,-1
 530 77 l 1,12,13
 437 -10 437 -10 304 -10 c 0,14,15
 175 -10 175 -10 110 74 c 128,-1,16
 45 158 45 158 45 289 c 0,17,18
 45 354 45 354 59 417 c 128,-1,19
 73 480 73 480 103 537.5 c 128,-1,20
 133 595 133 595 175 638.5 c 128,-1,21
 217 682 217 682 277 708 c 128,-1,22
 337 734 337 734 407 734 c 0,23,24
 538 734 538 734 606 648 c 1,25,-1
 616 724 l 1,0,-1
574 433 m 0,26,27
 574 533 574 533 532.5 599 c 128,-1,28
 491 665 491 665 398 665 c 0,29,30
 332 665 332 665 280 629.5 c 128,-1,31
 228 594 228 594 198.5 537 c 128,-1,32
 169 480 169 480 154.5 417 c 128,-1,33
 140 354 140 354 140 291 c 128,-1,34
 140 228 140 228 155 178.5 c 128,-1,35
 170 129 170 129 211.5 94 c 128,-1,36
 253 59 253 59 317 59 c 0,37,38
 384 59 384 59 435.5 94.5 c 128,-1,39
 487 130 487 130 516 187.5 c 128,-1,40
 545 245 545 245 559.5 307.5 c 128,-1,41
 574 370 574 370 574 433 c 0,26,27
EndSplineSet
EndChar
StartChar: oe
Encoding: 339 339 194
Width: 801
GlyphClass: 2
Flags: W
LayerCount: 2
Back
Fore
SplineSet
764 397 m 0,0,1
 764 350 764 350 737 311.5 c 128,-1,2
 710 273 710 273 667 247 c 0,3,4
 593 203 593 203 459 201 c 1,5,-1
 459 196 l 2,6,7
 459 137 459 137 489 96.5 c 128,-1,8
 519 56 519 56 576 56 c 0,9,10
 649 56 649 56 715 101 c 1,11,-1
 744 42 l 1,12,13
 665 -14 665 -14 571 -14 c 0,14,15
 453 -14 453 -14 401 79 c 1,16,17
 330 -14 330 -14 220 -14 c 0,18,19
 132 -14 132 -14 84 46.5 c 128,-1,20
 36 107 36 107 36 197 c 0,21,22
 36 271 36 271 65 340 c 128,-1,23
 94 409 94 409 153 456 c 128,-1,24
 212 503 212 503 288 503 c 0,25,26
 400 503 400 503 447 407 c 1,27,28
 522 503 522 503 637 503 c 0,29,30
 693 503 693 503 728.5 477 c 128,-1,31
 764 451 764 451 764 397 c 0,0,1
681 393 m 0,32,33
 681 412 681 412 666.5 426.5 c 128,-1,34
 652 441 652 441 626 441 c 0,35,36
 579 441 579 441 539.5 403.5 c 128,-1,37
 500 366 500 366 482.5 325.5 c 128,-1,38
 465 285 465 285 465 259 c 1,39,40
 562 259 562 259 621.5 300 c 128,-1,41
 681 341 681 341 681 393 c 0,32,33
386 293 m 0,42,43
 386 352 386 352 361 396.5 c 128,-1,44
 336 441 336 441 281 441 c 0,45,46
 241 441 241 441 209 417 c 128,-1,47
 177 393 177 393 159 355.5 c 128,-1,48
 141 318 141 318 131.5 278.5 c 128,-1,49
 122 239 122 239 122 202 c 0,50,51
 122 144 122 144 147.5 96.5 c 128,-1,52
 173 49 173 49 227 49 c 0,53,54
 268 49 268 49 300 73.5 c 128,-1,55
 332 98 332 98 350 136.5 c 128,-1,56
 368 175 368 175 377 215.5 c 128,-1,57
 386 256 386 256 386 293 c 0,42,43
EndSplineSet
EndChar
StartChar: florin
Encoding: 402 402 200
Width: 520
GlyphClass: 2
Flags: W
LayerCount: 2
Back
Fore
SplineSet
632 732 m 1,0,-1
 585 674 l 1,1,2
 558 709 558 709 516 709 c 0,3,4
 478 709 478 709 447.5 690.5 c 128,-1,5
 417 672 417 672 396.5 636.5 c 128,-1,6
 376 601 376 601 363.5 568.5 c 128,-1,7
 351 536 351 536 339 490 c 1,8,-1
 452 490 l 1,9,-1
 434 427 l 1,10,-1
 322 427 l 1,11,-1
 188 -62 l 2,12,13
 141 -230 141 -230 0 -230 c 0,14,15
 -66 -230 -66 -230 -108 -198 c 1,16,-1
 -62 -142 l 1,17,-1
 -35 -160 l 2,18,19
 -22 -166 -22 -166 5 -166 c 0,20,21
 79 -166 79 -166 111 -52 c 2,22,-1
 241 427 l 1,23,-1
 170 427 l 1,24,-1
 188 490 l 1,25,-1
 260 490 l 1,26,27
 272 538 272 538 285.5 575 c 128,-1,28
 299 612 299 612 320.5 650.5 c 128,-1,29
 342 689 342 689 368.5 714.5 c 128,-1,30
 395 740 395 740 433 756 c 128,-1,31
 471 772 471 772 517 772 c 0,32,33
 582 772 582 772 632 732 c 1,0,-1
EndSplineSet
EndChar
StartChar: circumflex
Encoding: 710 710 201
Width: 254
GlyphClass: 2
Flags: W
LayerCount: 2
Back
Fore
SplineSet
266 574 m 1,0,-1
 201 574 l 1,1,-1
 137 653 l 1,2,-1
 54 574 l 1,3,-1
 -11 574 l 1,4,-1
 107 724 l 1,5,-1
 186 724 l 1,6,-1
 266 574 l 1,0,-1
EndSplineSet
EndChar
StartChar: caron
Encoding: 711 711 202
Width: 264
GlyphClass: 2
Flags: W
LayerCount: 2
Back
Fore
SplineSet
289 724 m 1,0,-1
 166 553 l 1,1,-1
 85 553 l 1,2,-1
 12 724 l 1,3,-1
 77 724 l 1,4,-1
 135 625 l 1,5,-1
 222 724 l 1,6,-1
 289 724 l 1,0,-1
EndSplineSet
EndChar
StartChar: breve
Encoding: 728 728 203
Width: 256
GlyphClass: 2
Flags: W
LayerCount: 2
Back
Fore
SplineSet
280 724 m 1,0,1
 245 589 245 589 129 589 c 0,2,3
 76 589 76 589 45.5 620.5 c 128,-1,4
 15 652 15 652 15 711 c 2,5,-1
 15 724 l 1,6,-1
 62 724 l 1,7,8
 67 657 67 657 137 657 c 256,9,10
 207 657 207 657 233 724 c 1,11,-1
 280 724 l 1,0,1
EndSplineSet
EndChar
StartChar: dotaccent
Encoding: 729 729 204
Width: 201
GlyphClass: 2
Flags: W
LayerCount: 2
Back
Fore
SplineSet
150 689 m 0,0,1
 179 689 179 689 194.5 671.5 c 128,-1,2
 210 654 210 654 210 630 c 128,-1,3
 210 606 210 606 188.5 583.5 c 128,-1,4
 167 561 167 561 134 561 c 0,5,6
 105 561 105 561 90.5 578.5 c 128,-1,7
 76 596 76 596 76 618 c 0,8,9
 76 642 76 642 97 665.5 c 128,-1,10
 118 689 118 689 150 689 c 0,0,1
EndSplineSet
EndChar
StartChar: ring
Encoding: 730 730 205
Width: 221
GlyphClass: 2
Flags: W
LayerCount: 2
Back
Fore
SplineSet
212 720 m 0,0,1
 241 691 241 691 241 650 c 128,-1,2
 241 609 241 609 211.5 580 c 128,-1,3
 182 551 182 551 141 551 c 256,4,5
 100 551 100 551 71 580 c 128,-1,6
 42 609 42 609 42 650 c 128,-1,7
 42 691 42 691 71.5 720.5 c 128,-1,8
 101 750 101 750 142 750 c 256,9,10
 183 750 183 750 212 720 c 0,0,1
141 602 m 0,11,12
 161 602 161 602 175 616 c 128,-1,13
 189 630 189 630 189 650 c 128,-1,14
 189 670 189 670 174.5 684 c 128,-1,15
 160 698 160 698 141 698 c 256,16,17
 122 698 122 698 107.5 684 c 128,-1,18
 93 670 93 670 93 650 c 128,-1,19
 93 630 93 630 107.5 616 c 128,-1,20
 122 602 122 602 141 602 c 0,11,12
EndSplineSet
EndChar
StartChar: ogonek
Encoding: 731 731 206
Width: 294
GlyphClass: 2
Flags: W
LayerCount: 2
Back
Fore
SplineSet
252 11 m 1,0,1
 118 -51 118 -51 118 -111 c 0,2,3
 118 -146 118 -146 159 -146 c 0,4,5
 182 -146 182 -146 240 -114 c 1,6,-1
 251 -151 l 1,7,8
 179 -201 179 -201 117 -201 c 0,9,10
 77 -201 77 -201 56.5 -182 c 128,-1,11
 36 -163 36 -163 36 -132 c 0,12,13
 36 -95 36 -95 72 -60.5 c 128,-1,14
 108 -26 108 -26 150.5 -6.5 c 128,-1,15
 193 13 193 13 234 23 c 1,16,-1
 252 11 l 1,0,1
EndSplineSet
EndChar
StartChar: tilde
Encoding: 732 732 207
Width: 272
GlyphClass: 2
Flags: W
LayerCount: 2
Back
Fore
SplineSet
289 648 m 2,0,1
 288 645 288 645 285.5 640 c 128,-1,2
 283 635 283 635 274.5 622.5 c 128,-1,3
 266 610 266 610 255.5 600.5 c 128,-1,4
 245 591 245 591 228 583 c 128,-1,5
 211 575 211 575 192 575 c 0,6,7
 164 575 164 575 123.5 594 c 128,-1,8
 83 613 83 613 60 613 c 0,9,10
 34 613 34 613 7 586 c 1,11,-1
 -18 606 l 2,12,13
 -17 609 -17 609 -14.5 614.5 c 128,-1,14
 -12 620 -12 620 -2.5 633 c 128,-1,15
 7 646 7 646 18 656 c 128,-1,16
 29 666 29 666 48 674.5 c 128,-1,17
 67 683 67 683 88 683 c 0,18,19
 116 683 116 683 155 664 c 128,-1,20
 194 645 194 645 211 645 c 0,21,22
 238 645 238 645 266 673 c 1,23,-1
 289 648 l 2,0,1
EndSplineSet
EndChar
StartChar: hungarumlaut
Encoding: 733 733 208
Width: 308
GlyphClass: 2
Flags: W
LayerCount: 2
Back
Fore
SplineSet
337 724 m 1,0,-1
 182 557 l 1,1,-1
 122 557 l 1,2,-1
 224 724 l 1,3,-1
 337 724 l 1,0,-1
202 724 m 1,4,-1
 48 557 l 1,5,-1
 -12 557 l 1,6,-1
 89 724 l 1,7,-1
 202 724 l 1,4,-1
EndSplineSet
EndChar
StartChar: pi
Encoding: 960 960 209
Width: 669
GlyphClass: 2
Flags: W
LayerCount: 2
Back
Fore
SplineSet
628 512 m 1,0,-1
 646 471 l 1,1,2
 605 426 605 426 530 422 c 1,3,4
 449 241 449 241 449 131 c 0,5,6
 449 58 449 58 495 58 c 0,7,8
 514 58 514 58 537 68 c 1,9,10
 540 61 540 61 545 45 c 128,-1,11
 550 29 550 29 553 21 c 1,12,13
 512 -12 512 -12 461 -12 c 0,14,15
 412 -12 412 -12 390.5 25 c 128,-1,16
 369 62 369 62 369 118 c 0,17,18
 369 276 369 276 459 422 c 1,19,-1
 297 422 l 1,20,-1
 284 331 l 2,21,22
 278 288 278 288 273 258.5 c 128,-1,23
 268 229 268 229 258 187.5 c 128,-1,24
 248 146 248 146 234 116 c 128,-1,25
 220 86 220 86 200.5 55.5 c 128,-1,26
 181 25 181 25 152 3 c 128,-1,27
 123 -19 123 -19 87 -31 c 1,28,29
 78 -10 78 -10 69 6 c 1,30,31
 113 30 113 30 142 74.5 c 128,-1,32
 171 119 171 119 178 172 c 2,33,-1
 207 386 l 2,34,35
 208 393 208 393 212 404.5 c 128,-1,36
 216 416 216 416 217 422 c 1,37,38
 181 419 181 419 153.5 397.5 c 128,-1,39
 126 376 126 376 114 342 c 1,40,41
 84 350 84 350 71 355 c 1,42,43
 82 416 82 416 128.5 453 c 128,-1,44
 175 490 175 490 244 490 c 2,45,-1
 531 490 l 2,46,47
 589 490 589 490 628 512 c 1,0,-1
EndSplineSet
EndChar
StartChar: endash
Encoding: 8211 8211 210
Width: 551
GlyphClass: 2
Flags: W
LayerCount: 2
Back
Fore
SplineSet
523 285 m 1,0,-1
 514 228 l 1,1,-1
 28 228 l 1,2,-1
 37 285 l 1,3,-1
 523 285 l 1,0,-1
EndSplineSet
EndChar
StartChar: emdash
Encoding: 8212 8212 211
Width: 901
GlyphClass: 2
Flags: W
LayerCount: 2
Back
Fore
SplineSet
873 285 m 1,0,-1
 864 228 l 1,1,-1
 28 228 l 1,2,-1
 37 285 l 1,3,-1
 873 285 l 1,0,-1
EndSplineSet
EndChar
StartChar: quoteleft
Encoding: 8216 8216 212
Width: 191
GlyphClass: 2
Flags: W
LayerCount: 2
Back
Fore
SplineSet
198 693 m 1,0,-1
 191 687 l 2,1,2
 140 643 140 643 140 619 c 0,3,4
 140 612 140 612 160 590 c 128,-1,5
 180 568 180 568 180 547 c 0,6,7
 180 516 180 516 160 498 c 128,-1,8
 140 480 140 480 111 480 c 0,9,10
 80 480 80 480 62.5 500.5 c 128,-1,11
 45 521 45 521 45 551 c 0,12,13
 45 601 45 601 80.5 646.5 c 128,-1,14
 116 692 116 692 168 726 c 1,15,-1
 198 693 l 1,0,-1
EndSplineSet
EndChar
StartChar: quoteright
Encoding: 8217 8217 213
Width: 261
GlyphClass: 2
Flags: W
LayerCount: 2
Back
Fore
SplineSet
216 654 m 0,0,1
 216 604 216 604 180 558.5 c 128,-1,2
 144 513 144 513 93 479 c 1,3,-1
 63 512 l 2,4,5
 65 513 65 513 76.5 523 c 128,-1,6
 88 533 88 533 93 538 c 128,-1,7
 98 543 98 543 106 552.5 c 128,-1,8
 114 562 114 562 117.5 570 c 128,-1,9
 121 578 121 578 121 586 c 0,10,11
 121 593 121 593 101 615 c 128,-1,12
 81 637 81 637 81 658 c 0,13,14
 81 689 81 689 101 706.5 c 128,-1,15
 121 724 121 724 150 724 c 0,16,17
 181 724 181 724 198.5 704 c 128,-1,18
 216 684 216 684 216 654 c 0,0,1
EndSplineSet
EndChar
StartChar: quotesinglbase
Encoding: 8218 8218 214
Width: 252
GlyphClass: 2
Flags: W
LayerCount: 2
Back
Fore
SplineSet
171 50 m 0,0,1
 171 1 171 1 135 -45 c 128,-1,2
 99 -91 99 -91 47 -125 c 1,3,-1
 18 -92 l 2,4,5
 20 -90 20 -90 29 -82.5 c 128,-1,6
 38 -75 38 -75 42 -71 c 128,-1,7
 46 -67 46 -67 53.5 -59 c 128,-1,8
 61 -51 61 -51 65 -45.5 c 128,-1,9
 69 -40 69 -40 72 -32.5 c 128,-1,10
 75 -25 75 -25 75 -18 c 128,-1,11
 75 -11 75 -11 55 11 c 128,-1,12
 35 33 35 33 35 54 c 0,13,14
 35 85 35 85 55.5 102.5 c 128,-1,15
 76 120 76 120 105 120 c 0,16,17
 135 120 135 120 153 100 c 128,-1,18
 171 80 171 80 171 50 c 0,0,1
EndSplineSet
EndChar
StartChar: quotedblright
Encoding: 8221 8221 216
Width: 451
GlyphClass: 2
Flags: W
LayerCount: 2
Back
Fore
SplineSet
406 654 m 0,0,1
 406 605 406 605 370 559 c 128,-1,2
 334 513 334 513 282 479 c 1,3,-1
 253 512 l 2,4,5
 255 514 255 514 264 521.5 c 128,-1,6
 273 529 273 529 277 533 c 128,-1,7
 281 537 281 537 288.5 545 c 128,-1,8
 296 553 296 553 300 558.5 c 128,-1,9
 304 564 304 564 307 571.5 c 128,-1,10
 310 579 310 579 310 586 c 128,-1,11
 310 593 310 593 290 615 c 128,-1,12
 270 637 270 637 270 658 c 0,13,14
 270 689 270 689 290.5 706.5 c 128,-1,15
 311 724 311 724 340 724 c 0,16,17
 370 724 370 724 388 704 c 128,-1,18
 406 684 406 684 406 654 c 0,0,1
216 654 m 0,19,20
 216 604 216 604 180 558.5 c 128,-1,21
 144 513 144 513 93 479 c 1,22,-1
 63 512 l 2,23,24
 65 513 65 513 76.5 523 c 128,-1,25
 88 533 88 533 93 538 c 128,-1,26
 98 543 98 543 106 552.5 c 128,-1,27
 114 562 114 562 117.5 570 c 128,-1,28
 121 578 121 578 121 586 c 0,29,30
 121 593 121 593 101 615 c 128,-1,31
 81 637 81 637 81 658 c 0,32,33
 81 689 81 689 101 706.5 c 128,-1,34
 121 724 121 724 150 724 c 0,35,36
 181 724 181 724 198.5 704 c 128,-1,37
 216 684 216 684 216 654 c 0,19,20
EndSplineSet
EndChar
StartChar: dagger
Encoding: 8224 8224 218
Width: 490
GlyphClass: 2
Flags: W
LayerCount: 2
Back
Fore
SplineSet
459 481 m 1,0,-1
 398 445 l 1,1,-1
 267 468 l 1,2,3
 272 353 272 353 272 335 c 0,4,5
 272 314 272 314 271 309 c 0,6,7
 270 302 270 302 243 162 c 2,8,-1
 185 -133 l 1,9,-1
 149 -133 l 1,10,-1
 173 162 l 2,11,12
 175 181 175 181 177 228.5 c 128,-1,13
 179 276 179 276 184 309 c 0,14,15
 185 317 185 317 234 468 c 1,16,-1
 99 445 l 1,17,-1
 46 485 l 1,18,-1
 110 524 l 1,19,-1
 238 498 l 1,20,-1
 232 657 l 1,21,-1
 285 730 l 1,22,-1
 321 657 l 1,23,-1
 271 498 l 1,24,-1
 409 524 l 1,25,-1
 459 481 l 1,0,-1
EndSplineSet
EndChar
StartChar: daggerdbl
Encoding: 8225 8225 219
Width: 532
GlyphClass: 2
Flags: W
LayerCount: 2
Back
Fore
SplineSet
498 481 m 1,0,-1
 437 445 l 1,1,-1
 307 468 l 1,2,3
 307 461 307 461 309.5 398.5 c 128,-1,4
 312 336 312 336 312 318 c 2,5,-1
 312 309 l 2,6,7
 310 295 310 295 300.5 260.5 c 128,-1,8
 291 226 291 226 278 181 c 128,-1,9
 265 136 265 136 263 129 c 1,10,-1
 393 150 l 1,11,-1
 447 112 l 1,12,-1
 382 74 l 1,13,-1
 260 99 l 1,14,-1
 260 -60 l 1,15,-1
 210 -130 l 1,16,-1
 171 -60 l 1,17,-1
 222 99 l 1,18,-1
 86 74 l 1,19,-1
 34 116 l 1,20,-1
 97 150 l 1,21,-1
 226 129 l 1,22,23
 226 140 226 140 224.5 194 c 128,-1,24
 223 248 223 248 223 273 c 0,25,26
 223 301 223 301 224 309 c 128,-1,27
 225 317 225 317 274 468 c 1,28,-1
 138 445 l 1,29,-1
 86 485 l 1,30,-1
 149 524 l 1,31,-1
 278 498 l 1,32,-1
 272 657 l 1,33,-1
 324 730 l 1,34,-1
 361 657 l 1,35,-1
 311 498 l 1,36,-1
 448 524 l 1,37,-1
 498 481 l 1,0,-1
EndSplineSet
EndChar
StartChar: bullet
Encoding: 8226 8226 220
Width: 405
GlyphClass: 2
Flags: W
LayerCount: 2
Back
Fore
SplineSet
46 357 m 0,0,1
 46 421 46 421 91 467 c 128,-1,2
 136 513 136 513 202 513 c 256,3,4
 268 513 268 513 313.5 467.5 c 128,-1,5
 359 422 359 422 359 357 c 128,-1,6
 359 292 359 292 314.5 246.5 c 128,-1,7
 270 201 270 201 204 201 c 256,8,9
 138 201 138 201 92 246.5 c 128,-1,10
 46 292 46 292 46 357 c 0,0,1
EndSplineSet
EndChar
StartChar: perthousand
Encoding: 8240 8240 222
Width: 1052
GlyphClass: 2
Flags: W
LayerCount: 2
Back
Fore
SplineSet
1008 226 m 0,0,1
 1008 176 1008 176 987.5 124 c 128,-1,2
 967 72 967 72 924 33.5 c 128,-1,3
 881 -5 881 -5 828 -5 c 0,4,5
 763 -5 763 -5 727 42 c 128,-1,6
 691 89 691 89 691 154 c 0,7,8
 691 242 691 242 741 313 c 128,-1,9
 791 384 791 384 877 384 c 0,10,11
 940 384 940 384 974 337 c 128,-1,12
 1008 290 1008 290 1008 226 c 0,0,1
674 226 m 0,13,14
 674 176 674 176 653.5 124 c 128,-1,15
 633 72 633 72 590 33.5 c 128,-1,16
 547 -5 547 -5 494 -5 c 0,17,18
 429 -5 429 -5 393 42 c 128,-1,19
 357 89 357 89 357 154 c 0,20,21
 357 242 357 242 407 313 c 128,-1,22
 457 384 457 384 543 384 c 0,23,24
 606 384 606 384 640 337 c 128,-1,25
 674 290 674 290 674 226 c 0,13,14
608 709 m 1,26,-1
 169 -13 l 1,27,-1
 101 -13 l 1,28,-1
 507 653 l 1,29,-1
 334 653 l 1,30,31
 361 610 361 610 361 553 c 0,32,33
 361 503 361 503 340.5 451 c 128,-1,34
 320 399 320 399 277.5 360.5 c 128,-1,35
 235 322 235 322 182 322 c 0,36,37
 117 322 117 322 81 369 c 128,-1,38
 45 416 45 416 45 481 c 0,39,40
 45 568 45 568 93 639.5 c 128,-1,41
 141 711 141 711 223 711 c 0,42,43
 224 711 224 711 234.5 710.5 c 128,-1,44
 245 710 245 710 257.5 709.5 c 128,-1,45
 270 709 270 709 275 709 c 2,46,-1
 608 709 l 1,26,-1
935 224 m 0,47,48
 935 263 935 263 919.5 294.5 c 128,-1,49
 904 326 904 326 871 326 c 0,50,51
 825 326 825 326 794 269 c 128,-1,52
 763 212 763 212 763 158 c 0,53,54
 763 120 763 120 781 87.5 c 128,-1,55
 799 55 799 55 833 55 c 0,56,57
 880 55 880 55 907.5 112 c 128,-1,58
 935 169 935 169 935 224 c 0,47,48
288 552 m 0,59,60
 288 590 288 590 272.5 621.5 c 128,-1,61
 257 653 257 653 225 653 c 0,62,63
 179 653 179 653 148 597 c 128,-1,64
 117 541 117 541 117 485 c 0,65,66
 117 446 117 446 135 414 c 128,-1,67
 153 382 153 382 187 382 c 0,68,69
 234 382 234 382 261 439.5 c 128,-1,70
 288 497 288 497 288 552 c 0,59,60
601 224 m 0,71,72
 601 263 601 263 585.5 294.5 c 128,-1,73
 570 326 570 326 537 326 c 0,74,75
 491 326 491 326 460 269 c 128,-1,76
 429 212 429 212 429 158 c 0,77,78
 429 120 429 120 447 87.5 c 128,-1,79
 465 55 465 55 499 55 c 0,80,81
 546 55 546 55 573.5 112 c 128,-1,82
 601 169 601 169 601 224 c 0,71,72
EndSplineSet
EndChar
StartChar: guilsinglleft
Encoding: 8249 8249 223
Width: 304
GlyphClass: 2
Flags: W
LayerCount: 2
Back
Fore
SplineSet
264 178 m 1,0,-1
 205 169 l 1,1,-1
 56 329 l 1,2,-1
 201 490 l 1,3,-1
 262 479 l 1,4,-1
 146 329 l 1,5,-1
 264 178 l 1,0,-1
EndSplineSet
EndChar
StartChar: guilsinglright
Encoding: 8250 8250 224
Width: 310
GlyphClass: 2
Flags: W
LayerCount: 2
Back
Fore
SplineSet
262 327 m 1,0,-1
 113 167 l 1,1,-1
 54 176 l 1,2,-1
 172 327 l 1,3,-1
 56 477 l 1,4,-1
 117 488 l 1,5,-1
 262 327 l 1,0,-1
EndSplineSet
EndChar
StartChar: fraction
Encoding: 8260 8260 225
Width: 241
GlyphClass: 2
Flags: W
LayerCount: 2
Back
Fore
SplineSet
-40 -22 m 1,0,-1
 -99 -22 l 1,1,-1
 297 753 l 1,2,-1
 356 753 l 1,3,-1
 -40 -22 l 1,0,-1
EndSplineSet
EndChar
StartChar: Euro
Encoding: 8364 8364 226
Width: 480
GlyphClass: 2
Flags: W
LayerCount: 2
Back
Fore
SplineSet
492 453 m 1,0,-1
 443 396 l 1,1,2
 416 422 416 422 395.5 431 c 128,-1,3
 375 440 375 440 342 440 c 0,4,5
 299 440 299 440 261.5 405.5 c 128,-1,6
 224 371 224 371 205 325 c 1,7,-1
 401 325 l 1,8,-1
 394 279 l 1,9,-1
 191 279 l 1,10,11
 186 251 186 251 184 217 c 1,12,-1
 387 217 l 1,13,-1
 380 170 l 1,14,-1
 187 170 l 1,15,16
 194 124 194 124 222.5 90 c 128,-1,17
 251 56 251 56 294 56 c 0,18,19
 351 56 351 56 414 100 c 1,20,-1
 442 36 l 1,21,22
 395 9 395 9 361 -2 c 128,-1,23
 327 -13 327 -13 281 -13 c 0,24,25
 201 -13 201 -13 153 38.5 c 128,-1,26
 105 90 105 90 98 170 c 1,27,-1
 23 170 l 1,28,-1
 30 217 l 1,29,-1
 98 217 l 1,30,31
 101 246 101 246 107 279 c 1,32,-1
 38 279 l 1,33,-1
 45 325 l 1,34,-1
 120 325 l 1,35,36
 149 405 149 405 213.5 454.5 c 128,-1,37
 278 504 278 504 362 504 c 0,38,39
 436 504 436 504 492 453 c 1,0,-1
EndSplineSet
EndChar
StartChar: trademark
Encoding: 8482 8482 227
Width: 580
GlyphClass: 2
Flags: W
LayerCount: 2
Back
Fore
SplineSet
535 724 m 1,0,-1
 504 499 l 1,1,-1
 455 499 l 1,2,-1
 474 636 l 2,3,4
 474 640 474 640 476 650 c 1,5,6
 459 616 459 616 396 499 c 1,7,-1
 366 499 l 1,8,9
 358 529 358 529 345 581.5 c 128,-1,10
 332 634 332 634 327 654 c 1,11,12
 327 649 327 649 326 646 c 2,13,-1
 306 499 l 1,14,-1
 264 499 l 1,15,-1
 295 724 l 1,16,-1
 361 724 l 1,17,-1
 396 579 l 1,18,-1
 471 724 l 1,19,-1
 535 724 l 1,0,-1
273 724 m 1,20,-1
 268 687 l 1,21,-1
 196 687 l 1,22,-1
 170 500 l 1,23,-1
 120 500 l 1,24,-1
 146 687 l 1,25,-1
 75 687 l 1,26,-1
 80 724 l 1,27,-1
 273 724 l 1,20,-1
EndSplineSet
EndChar
StartChar: Omega
Encoding: 8486 8486 228
Width: 727
GlyphClass: 2
Flags: W
LayerCount: 2
Back
Fore
SplineSet
644 0 m 1,0,-1
 397 0 l 1,1,-1
 404 53 l 1,2,3
 468 77 468 77 512 142 c 128,-1,4
 556 207 556 207 573.5 278.5 c 128,-1,5
 591 350 591 350 591 423 c 0,6,7
 591 528 591 528 548.5 597 c 128,-1,8
 506 666 506 666 413 666 c 0,9,10
 346 666 346 666 293 627 c 128,-1,11
 240 588 240 588 210 527.5 c 128,-1,12
 180 467 180 467 165 401.5 c 128,-1,13
 150 336 150 336 150 274 c 0,14,15
 150 195 150 195 176 135.5 c 128,-1,16
 202 76 202 76 257 53 c 1,17,-1
 251 0 l 1,18,-1
 4 0 l 1,19,-1
 14 69 l 1,20,-1
 83 69 l 1,21,-1
 147 64 l 1,22,23
 105 99 105 99 82 161 c 128,-1,24
 59 223 59 223 59 297 c 0,25,26
 59 414 59 414 103 513 c 128,-1,27
 147 612 147 612 231 673.5 c 128,-1,28
 315 735 315 735 423 735 c 0,29,30
 553 735 553 735 620 652 c 128,-1,31
 687 569 687 569 687 435 c 0,32,33
 687 324 687 324 641.5 220 c 128,-1,34
 596 116 596 116 520 64 c 1,35,-1
 585 69 l 1,36,-1
 654 69 l 1,37,-1
 644 0 l 1,0,-1
EndSplineSet
EndChar
StartChar: partialdiff
Encoding: 8706 8706 229
Width: 523
GlyphClass: 2
Flags: W
LayerCount: 2
Back
Fore
SplineSet
388 355 m 1,0,1
 392 386 392 386 392 452 c 0,2,3
 392 554 392 554 352.5 607.5 c 128,-1,4
 313 661 313 661 255 661 c 0,5,6
 227 661 227 661 201.5 653.5 c 128,-1,7
 176 646 176 646 165 639 c 2,8,-1
 154 632 l 1,9,10
 139 668 139 668 130 683 c 1,11,12
 136 689 136 689 147.5 697.5 c 128,-1,13
 159 706 159 706 197 720 c 128,-1,14
 235 734 235 734 277 734 c 0,15,16
 373 734 373 734 430 657 c 128,-1,17
 487 580 487 580 487 439 c 0,18,19
 487 335 487 335 466 253 c 128,-1,20
 445 171 445 171 414 123 c 128,-1,21
 383 75 383 75 342.5 43.5 c 128,-1,22
 302 12 302 12 267.5 1 c 128,-1,23
 233 -10 233 -10 202 -10 c 0,24,25
 175 -10 175 -10 148 -2 c 128,-1,26
 121 6 121 6 95 23.5 c 128,-1,27
 69 41 69 41 53 75 c 128,-1,28
 37 109 37 109 37 155 c 0,29,30
 37 220 37 220 61 271.5 c 128,-1,31
 85 323 85 323 121.5 351.5 c 128,-1,32
 158 380 158 380 195.5 395 c 128,-1,33
 233 410 233 410 265 410 c 0,34,35
 345 410 345 410 388 355 c 1,0,1
377 290 m 1,36,37
 336 340 336 340 269 340 c 0,38,39
 209 340 209 340 167 284 c 128,-1,40
 125 228 125 228 125 162 c 0,41,42
 125 119 125 119 146.5 88 c 128,-1,43
 168 57 168 57 212 57 c 0,44,45
 271 57 271 57 314 124 c 128,-1,46
 357 191 357 191 377 290 c 1,36,37
EndSplineSet
EndChar
StartChar: Delta
Encoding: 8710 8710 230
Width: 631
GlyphClass: 2
Flags: W
LayerCount: 2
Back
Fore
SplineSet
550 0 m 1,0,-1
 -22 0 l 1,1,-1
 -15 53 l 1,2,3
 23 128 23 128 92 264.5 c 128,-1,4
 161 401 161 401 217 512.5 c 128,-1,5
 273 624 273 624 323 723 c 1,6,-1
 398 723 l 1,7,8
 482 377 482 377 557 53 c 1,9,-1
 550 0 l 1,0,-1
64 66 m 1,10,-1
 449 66 l 1,11,12
 352 478 352 478 348 496 c 0,13,14
 344 516 344 516 338.5 554 c 128,-1,15
 333 592 333 592 330 605 c 1,16,-1
 64 66 l 1,10,-1
EndSplineSet
EndChar
StartChar: infinity
Encoding: 8734 8734 235
Width: 812
GlyphClass: 2
Flags: W
LayerCount: 2
Back
Fore
SplineSet
581 82 m 0,0,1
 529 82 529 82 488.5 112.5 c 128,-1,2
 448 143 448 143 406 197 c 1,3,4
 364 143 364 143 323.5 112.5 c 128,-1,5
 283 82 283 82 231 82 c 0,6,7
 162 82 162 82 120 128.5 c 128,-1,8
 78 175 78 175 78 248 c 128,-1,9
 78 321 78 321 120 367.5 c 128,-1,10
 162 414 162 414 232 414 c 0,11,12
 283 414 283 414 323.5 383.5 c 128,-1,13
 364 353 364 353 406 300 c 1,14,15
 448 353 448 353 488.5 383.5 c 128,-1,16
 529 414 529 414 580 414 c 0,17,18
 650 414 650 414 692 367.5 c 128,-1,19
 734 321 734 321 734 248 c 128,-1,20
 734 175 734 175 692 128.5 c 128,-1,21
 650 82 650 82 581 82 c 0,0,1
580 333 m 0,22,23
 543 333 543 333 512 310 c 128,-1,24
 481 287 481 287 448 248 c 1,25,26
 518 164 518 164 582 164 c 0,27,28
 621 164 621 164 644.5 186.5 c 128,-1,29
 668 209 668 209 668 248 c 128,-1,30
 668 287 668 287 643.5 310 c 128,-1,31
 619 333 619 333 580 333 c 0,22,23
364 248 m 1,32,33
 343 273 343 273 326.5 289 c 128,-1,34
 310 305 310 305 284 319 c 128,-1,35
 258 333 258 333 232 333 c 0,36,37
 193 333 193 333 168.5 310 c 128,-1,38
 144 287 144 287 144 248 c 128,-1,39
 144 209 144 209 167.5 186.5 c 128,-1,40
 191 164 191 164 230 164 c 0,41,42
 294 164 294 164 364 248 c 1,32,33
EndSplineSet
EndChar
StartChar: lessequal
Encoding: 8804 8804 239
Width: 630
GlyphClass: 2
Flags: W
LayerCount: 2
Back
Fore
SplineSet
566 76 m 1,0,-1
 68 250 l 1,1,-1
 68 324 l 1,2,-1
 566 497 l 1,3,-1
 566 421 l 1,4,-1
 164 286 l 1,5,-1
 566 151 l 1,6,-1
 566 76 l 1,0,-1
566 0 m 1,7,-1
 68 0 l 1,8,-1
 68 69 l 1,9,-1
 566 69 l 1,10,-1
 566 0 l 1,7,-1
EndSplineSet
EndChar
StartChar: greaterequal
Encoding: 8805 8805 240
Width: 630
GlyphClass: 2
Flags: W
LayerCount: 2
Back
Fore
SplineSet
567 250 m 1,0,-1
 69 76 l 1,1,-1
 69 151 l 1,2,-1
 471 286 l 1,3,-1
 69 421 l 1,4,-1
 69 497 l 1,5,-1
 567 324 l 1,6,-1
 567 250 l 1,0,-1
567 0 m 1,7,-1
 69 0 l 1,8,-1
 69 69 l 1,9,-1
 567 69 l 1,10,-1
 567 0 l 1,7,-1
EndSplineSet
EndChar
StartChar: lozenge
Encoding: 9674 9674 241
Width: 504
GlyphClass: 2
Flags: W
LayerCount: 2
Back
Fore
SplineSet
402 360 m 1,0,-1
 251 651 l 1,1,2
 151 457 151 457 102 360 c 1,3,4
 219 129 219 129 252 65 c 1,5,6
 269 98 269 98 321 201.5 c 128,-1,7
 373 305 373 305 402 360 c 1,0,-1
272 -11 m 1,8,-1
 232 -11 l 1,9,-1
 37 360 l 1,10,11
 66 416 66 416 98.5 478 c 128,-1,12
 131 540 131 540 170.5 615.5 c 128,-1,13
 210 691 210 691 232 732 c 1,14,-1
 272 732 l 1,15,16
 294 691 294 691 333.5 615.5 c 128,-1,17
 373 540 373 540 405.5 478 c 128,-1,18
 438 416 438 416 467 360 c 1,19,-1
 272 -11 l 1,8,-1
EndSplineSet
EndChar
StartChar: fi
Encoding: 64257 64257 242
Width: 500
GlyphClass: 3
Flags: W
LayerCount: 2
Back
Fore
SplineSet
491 658 m 1,0,-1
 414 635 l 1,1,2
 410 670 410 670 389.5 688.5 c 128,-1,3
 369 707 369 707 336 707 c 0,4,5
 288 707 288 707 253 665.5 c 128,-1,6
 218 624 218 624 202 513 c 0,7,8
 200 501 200 501 199 490 c 1,9,-1
 460 490 l 1,10,-1
 404 62 l 1,11,-1
 404 0 l 1,12,-1
 315 0 l 1,13,-1
 372 427 l 1,14,-1
 189 427 l 1,15,-1
 122 -62 l 2,16,17
 112 -141 112 -141 68.5 -185.5 c 128,-1,18
 25 -230 25 -230 -43 -230 c 0,19,20
 -107 -230 -107 -230 -155 -199 c 1,21,-1
 -115 -142 l 1,22,23
 -93 -157 -93 -157 -81 -161.5 c 128,-1,24
 -69 -166 -69 -166 -45 -166 c 0,25,26
 29 -166 29 -166 44 -52 c 2,27,-1
 109 427 l 1,28,-1
 38 427 l 1,29,-1
 47 490 l 1,30,-1
 119 490 l 1,31,32
 129 558 129 558 142 603.5 c 128,-1,33
 155 649 155 649 178.5 690 c 128,-1,34
 202 731 202 731 242 751 c 128,-1,35
 282 771 282 771 339 771 c 0,36,37
 398 771 398 771 439 742 c 128,-1,38
 480 713 480 713 491 658 c 1,0,-1
EndSplineSet
Ligature2: "'liga' Standard Ligatures lookup 0 subtable" f i
EndChar
StartChar: fl
Encoding: 64258 64258 243
Width: 519
GlyphClass: 3
Flags: W
LayerCount: 2
Back
Fore
SplineSet
514 766 m 1,0,-1
 420 63 l 1,1,-1
 420 0 l 1,2,-1
 330 0 l 1,3,-1
 418 646 l 2,4,5
 418 673 418 673 397.5 691 c 128,-1,6
 377 709 377 709 345 709 c 0,7,8
 320 709 320 709 301 702 c 128,-1,9
 282 695 282 695 261.5 676 c 128,-1,10
 241 657 241 657 225.5 616 c 128,-1,11
 210 575 210 575 202 513 c 0,12,13
 201 501 201 501 199 490 c 1,14,-1
 311 490 l 1,15,-1
 302 427 l 1,16,-1
 190 427 l 1,17,-1
 123 -62 l 2,18,19
 100 -230 100 -230 -42 -230 c 0,20,21
 -106 -230 -106 -230 -154 -199 c 1,22,-1
 -114 -141 l 1,23,24
 -93 -156 -93 -156 -80.5 -161 c 128,-1,25
 -68 -166 -68 -166 -44 -166 c 0,26,27
 30 -166 30 -166 45 -52 c 2,28,-1
 109 427 l 1,29,-1
 38 427 l 1,30,-1
 47 490 l 1,31,-1
 119 490 l 1,32,33
 125 538 125 538 132.5 573 c 128,-1,34
 140 608 140 608 156 648 c 128,-1,35
 172 688 172 688 194.5 713 c 128,-1,36
 217 738 217 738 254.5 755 c 128,-1,37
 292 772 292 772 341 772 c 0,38,39
 404 772 404 772 445 740 c 1,40,-1
 514 766 l 1,0,-1
EndSplineSet
Ligature2: "'liga' Standard Ligatures lookup 0 subtable" f l
EndChar
